<svg xmlns="http://www.w3.org/2000/svg" xmlns:xlink="http://www.w3.org/1999/xlink" width="96" height="96" viewBox="0 0 96 96">
  <defs>
    <linearGradient id="linear-gradient" y1="0.5" x2="1" y2="0.5" gradientUnits="objectBoundingBox">
      <stop offset="0" stop-color="#3eb3cc"/>
      <stop offset="1" stop-color="#2e99e6"/>
    </linearGradient>
    <linearGradient id="linear-gradient-2" x1="0" y1="0.5" x2="1" y2="0.5" xlink:href="#linear-gradient"/>
    <linearGradient id="linear-gradient-3" x1="0" y1="0.5" x2="1" y2="0.5" xlink:href="#linear-gradient"/>
    <linearGradient id="linear-gradient-4" x1="0" y1="0.5" x2="1" y2="0.5" xlink:href="#linear-gradient"/>
  </defs>
  <g id="Artwork_14" data-name="Artwork 14" transform="translate(48 48)">
    <g id="Group_877" data-name="Group 877" transform="translate(-48 -48)">
      <rect id="Rectangle_666" data-name="Rectangle 666" width="96" height="96" fill="#fff" opacity="0"/>
      <g id="Group_860" data-name="Group 860">
        <path id="Path_2833" data-name="Path 2833" d="M79.58,71.189A2.923,2.923,0,0,0,80,69.781V54.029a2.926,2.926,0,0,0-.42-1.408L63.5,61.9Z" fill="#178fe6"/>
        <path id="Path_2834" data-name="Path 2834" d="M64.929,80.133l13.642-7.877a2.912,2.912,0,0,0,1.009-1.067L63.5,61.9,47.42,71.189a2.912,2.912,0,0,0,1.009,1.067l13.642,7.877A3.175,3.175,0,0,0,64.929,80.133Z" fill="#29afcc"/>
        <path id="Path_2835" data-name="Path 2835" d="M79.58,52.621a2.928,2.928,0,0,0-1.009-1.067L64.929,43.678a3.169,3.169,0,0,0-2.858,0L48.429,51.554A3.17,3.17,0,0,0,47,54.029V69.781a2.923,2.923,0,0,0,.42,1.408L63.5,61.9Z" fill="#3dccc0"/>
        <g id="Group_857" data-name="Group 857">
          <path id="Path_2836" data-name="Path 2836" d="M63.5,72.9a11,11,0,1,1,9.526-16.5l-4.761,2.755a5.5,5.5,0,1,0,0,5.5l4.76,2.754A11.039,11.039,0,0,1,63.5,72.9Z" fill="#fff"/>
        </g>
        <g id="Group_858" data-name="Group 858">
          <path id="Path_2837" data-name="Path 2837" d="M74.5,61.294H73.278V60.072H72.056v1.222H70.833v1.222h1.222v1.222h1.222V62.516H74.5Z" fill="#fff"/>
        </g>
        <g id="Group_859" data-name="Group 859">
          <path id="Path_2838" data-name="Path 2838" d="M79.083,61.294H77.861V60.072H76.639v1.222H75.417v1.222h1.222v1.222h1.222V62.516h1.222Z" fill="#fff"/>
        </g>
      </g>
      <g id="Group_862" data-name="Group 862">
        <rect id="Rectangle_667" data-name="Rectangle 667" width="34" height="34" rx="2" transform="translate(16 35.96)" fill="#c69c6d"/>
        <g id="Group_861" data-name="Group 861">
          <path id="Path_2839" data-name="Path 2839" d="M23.69,63.5l2.238-1.664a2.371,2.371,0,0,0,2.028,1.455c1.177,0,1.813-.6,1.813-2.543V51.307H33.06v9.714c0,2.8-1.453,5.112-4.67,5.112A4.934,4.934,0,0,1,23.69,63.5Z" fill="#fff9f2"/>
          <path id="Path_2840" data-name="Path 2840" d="M35.48,64.028l1.89-2.258a5.8,5.8,0,0,0,3.576,1.521c1.374,0,2.046-.541,2.046-1.4,0-.916-.827-1.21-2.1-1.733L39,59.346a4.246,4.246,0,0,1-2.938-3.968c0-2.413,2.155-4.339,5.185-4.339a6.736,6.736,0,0,1,4.684,1.907L44.27,55.021a4.738,4.738,0,0,0-3.022-1.14c-1.135,0-1.857.472-1.857,1.305,0,.893.952,1.217,2.223,1.723l1.855.752a4.014,4.014,0,0,1,2.888,3.96c0,2.418-2.015,4.512-5.485,4.512A8.015,8.015,0,0,1,35.48,64.028Z" fill="#fff9f2"/>
        </g>
      </g>
      <g id="Group_876" data-name="Group 876">
        <g id="Group_865" data-name="Group 865">
          <g id="Group_864" data-name="Group 864">
            <g id="Group_863" data-name="Group 863">
              <path id="Path_2841" data-name="Path 2841" d="M21.022,22.787c-.116,0-.146-.058-.087-.146l.613-.788a.419.419,0,0,1,.322-.146H32.3c.117,0,.146.087.087.175l-.5.759a.447.447,0,0,1-.292.176Z" fill="url(#linear-gradient)"/>
            </g>
          </g>
        </g>
        <g id="Group_868" data-name="Group 868">
          <g id="Group_867" data-name="Group 867">
            <g id="Group_866" data-name="Group 866">
              <path id="Path_2842" data-name="Path 2842" d="M16.611,25.475c-.117,0-.146-.058-.087-.146l.613-.789a.422.422,0,0,1,.321-.146H30.78a.135.135,0,0,1,.146.175l-.234.7a.256.256,0,0,1-.263.175Z" fill="url(#linear-gradient-2)"/>
            </g>
          </g>
        </g>
        <g id="Group_871" data-name="Group 871">
          <g id="Group_870" data-name="Group 870">
            <g id="Group_869" data-name="Group 869">
              <path id="Path_2843" data-name="Path 2843" d="M23.681,28.163c-.117,0-.146-.088-.088-.176l.409-.73a.387.387,0,0,1,.292-.175h5.843c.117,0,.175.087.175.2l-.058.7a.22.22,0,0,1-.2.2Z" fill="url(#linear-gradient-3)"/>
            </g>
          </g>
        </g>
        <g id="Group_875" data-name="Group 875">
          <g id="CXHf1q">
            <g id="Group_874" data-name="Group 874">
              <g id="Group_872" data-name="Group 872">
                <path id="Path_2844" data-name="Path 2844" d="M54,22.262c-1.84.467-3.1.818-4.908,1.285-.438.117-.467.146-.847-.292a3.907,3.907,0,0,0-1.373-1.11,5.079,5.079,0,0,0-5.288.438,6.211,6.211,0,0,0-2.979,5.55,4.58,4.58,0,0,0,3.943,4.587,5.392,5.392,0,0,0,4.967-1.928c.263-.322.5-.672.788-1.081H42.669c-.613,0-.759-.38-.555-.876.38-.906,1.081-2.425,1.49-3.185a.789.789,0,0,1,.73-.467H54.968c-.058.789-.058,1.577-.175,2.366a12.456,12.456,0,0,1-2.4,5.726,12.167,12.167,0,0,1-8.325,4.966,10.347,10.347,0,0,1-7.859-1.928,9.178,9.178,0,0,1-3.71-6.485,11.468,11.468,0,0,1,2.483-8.56,12.963,12.963,0,0,1,8.18-5.053,10.063,10.063,0,0,1,7.741,1.431A9.151,9.151,0,0,1,54.3,21.765C54.471,22.028,54.355,22.174,54,22.262Z" fill="url(#linear-gradient-4)"/>
              </g>
              <g id="Group_873" data-name="Group 873">
                <path id="Path_2845" data-name="Path 2845" d="M63.673,38.416a10.956,10.956,0,0,1-7.127-2.57,9.158,9.158,0,0,1-3.155-5.638,11.15,11.15,0,0,1,2.366-8.823,12.244,12.244,0,0,1,8.179-4.878A10.834,10.834,0,0,1,72.262,18a9.092,9.092,0,0,1,4.119,6.514,11.277,11.277,0,0,1-3.359,9.9,13.391,13.391,0,0,1-7.011,3.74C65.222,38.3,64.433,38.329,63.673,38.416Zm6.953-11.8a8.48,8.48,0,0,0-.087-.964,4.813,4.813,0,0,0-5.96-3.885,6.38,6.38,0,0,0-5.112,5.083,4.81,4.81,0,0,0,2.687,5.521,5.356,5.356,0,0,0,4.762-.175A6.393,6.393,0,0,0,70.626,26.614Z" fill="url(#linear-gradient-4)"/>
              </g>
            </g>
          </g>
        </g>
      </g>
    </g>
  </g>
</svg>
