<svg xmlns="http://www.w3.org/2000/svg" xmlns:xlink="http://www.w3.org/1999/xlink" width="96" height="96" viewBox="0 0 96 96">
  <defs>
    <clipPath id="clip-path">
      <path id="Path_2829" data-name="Path 2829" d="M64,32c-.537,0-1.067.029-1.59.08a14.5,14.5,0,1,0-28.82,0C33.067,32.029,32.537,32,32,32a16,16,0,0,0,0,32H64a16,16,0,0,0,0-32Z" fill="none"/>
    </clipPath>
    <linearGradient id="linear-gradient" y1="0.5" x2="1" y2="0.5" gradientUnits="objectBoundingBox">
      <stop offset="0" stop-color="#3eb3cc"/>
      <stop offset="1" stop-color="#2e99e6"/>
    </linearGradient>
  </defs>
  <g id="Artwork_13" data-name="Artwork 13" transform="translate(48 48)">
    <g id="Group_855" data-name="Group 855" transform="translate(-48 -48)">
      <rect id="Rectangle_653" data-name="Rectangle 653" width="96" height="96" fill="#fff" opacity="0"/>
      <path id="Path_2828" data-name="Path 2828" d="M64,32c-.537,0-1.067.029-1.59.08a14.5,14.5,0,1,0-28.82,0C33.067,32.029,32.537,32,32,32a16,16,0,0,0,0,32H64a16,16,0,0,0,0-32Z" fill="#e6e4dc"/>
      <g id="Group_854" data-name="Group 854">
        <g id="Group_853" data-name="Group 853" clip-path="url(#clip-path)">
          <circle id="Ellipse_120" data-name="Ellipse 120" cx="27" cy="27" r="27" transform="translate(21 49)" fill="#b38754"/>
        </g>
      </g>
      <rect id="Rectangle_654" data-name="Rectangle 654" width="64" height="16" rx="4" transform="translate(16 64)" fill="url(#linear-gradient)"/>
      <circle id="Ellipse_121" data-name="Ellipse 121" cx="3" cy="3" r="3" transform="translate(23 69)" fill="#fff"/>
      <circle id="Ellipse_122" data-name="Ellipse 122" cx="3" cy="3" r="3" transform="translate(34 69)" fill="#fff"/>
      <circle id="Ellipse_123" data-name="Ellipse 123" cx="3" cy="3" r="3" transform="translate(45 69)" fill="#fff"/>
      <circle id="Ellipse_124" data-name="Ellipse 124" cx="3" cy="3" r="3" transform="translate(56 69)" fill="#fff"/>
      <circle id="Ellipse_125" data-name="Ellipse 125" cx="3" cy="3" r="3" transform="translate(67 69)" fill="#fff"/>
      <circle id="Ellipse_126" data-name="Ellipse 126" cx="12.88" cy="12.88" r="12.88" transform="translate(35.12 27.2)" fill="#d9ac6c"/>
      <circle id="Ellipse_127" data-name="Ellipse 127" cx="11.5" cy="11.5" r="11.5" transform="translate(57 16)" fill="url(#linear-gradient)"/>
      <path id="Path_2830" data-name="Path 2830" d="M64,27l3.294,3.294a1,1,0,0,0,1.412,0L74.5,24.5" fill="none" stroke="#fff" stroke-linecap="round" stroke-linejoin="round" stroke-width="3"/>
    </g>
  </g>
</svg>
