<svg xmlns="http://www.w3.org/2000/svg" xmlns:xlink="http://www.w3.org/1999/xlink" width="88" height="88" viewBox="0 0 88 88">
  <defs>
    <linearGradient id="linear-gradient" y1="0.5" x2="1" y2="0.5" gradientUnits="objectBoundingBox">
      <stop offset="0" stop-color="#58d3cc"/>
      <stop offset="1" stop-color="#4ab6ff"/>
    </linearGradient>
  </defs>
  <g id="Bill_icon" transform="translate(44 44)">
    <g id="Group_345" data-name="Group 345" transform="translate(-44 -44)">
      <rect id="Rectangle_433" data-name="Rectangle 433" width="88" height="88" fill="#fff" opacity="0"/>
      <path id="Path_1374" data-name="Path 1374" d="M58.576,42.441H71.055c2.469,0,2.726.244,2.726,2.664V63.231c0,5.744-3.826,9.619-9.546,9.619q-22.4.018-44.794,0c-5.732,0-9.57-3.862-9.57-9.594q0-25.19.037-50.368a2.9,2.9,0,0,1,.88-2.163,2.384,2.384,0,0,1,2.127.489c2.078,1.919,4,2.078,6.05,0,.99-1,2.053-.807,3.19-.012,2.921,2.017,2.982,2.029,5.854.012a2.533,2.533,0,0,1,3.349.024c2.848,1.992,2.921,2,5.732.012a2.6,2.6,0,0,1,3.459.024c2.787,1.968,2.872,1.968,5.61.012a2.662,2.662,0,0,1,3.581.024c2.713,1.931,2.762,1.87,5.512.037a8.388,8.388,0,0,1,1.076-.684,1.488,1.488,0,0,1,2.224,1.186,9.16,9.16,0,0,1,.037,1.418v29.15ZM55.508,14.917a10.717,10.717,0,0,0-1.271.782c-1.2,1.063-2.273.917-3.557,0-2.713-1.931-2.8-1.919-5.634.049a2.53,2.53,0,0,1-3.337.061c-2.9-2.029-2.97-2.017-5.867-.012-1.137.782-2.163,1.039-3.19.012-2.041-2.041-4-2.029-6.038,0a2.068,2.068,0,0,1-3.056.061A10.6,10.6,0,0,0,21.3,14.391a2.477,2.477,0,0,0-1.6,0,4.135,4.135,0,0,0-1.418.929c-1.552,1.406-3.068,1.5-4.62.024a2.731,2.731,0,0,0-.733-.306V62.95c0,4.461,2.408,6.869,6.869,6.869h36.52c.4,0,.807-.049,1.5-.1-2.31-2.579-2.334-5.5-2.322-8.482.037-13.31.012-26.632.012-39.942v-6.38Zm3.276,30.629c-.086.159-.159.244-.159.33,0,6.221-.061,12.442.037,18.663a5.219,5.219,0,0,0,2.7,4.3,5.984,5.984,0,0,0,9.289-4.767c.134-6.026.037-12.063.024-18.1a1.9,1.9,0,0,0-.208-.513H59.847C59.48,45.46,59.114,45.521,58.784,45.545Z" transform="translate(2.193 2.329)" fill="url(#linear-gradient)"/>
      <path id="Path_1375" data-name="Path 1375" d="M25.106,39.5c-.5,1.357.636,3.581-1.638,3.63-2.42.049-1.21-2.286-1.772-3.691-.623,0-1.32.024-2.017,0a1.437,1.437,0,0,1-1.552-1.5,1.419,1.419,0,0,1,1.54-1.516c1.613-.061,3.227-.037,4.84-.024,1.027,0,1.87-.306,1.894-1.442.037-1.222-.831-1.577-1.919-1.564q-1.137.018-2.273,0a4.649,4.649,0,0,1-4.877-4.217c-.2-2.42,1.369-4.327,4-4.889.134-.024.269-.086.55-.171,0-.672-.024-1.369,0-2.066A1.516,1.516,0,1,1,24.911,22c.049.7,0,1.406,0,2.273.868,0,1.577-.037,2.273,0,.953.049,1.65.636,1.442,1.528A2.152,2.152,0,0,1,27.2,27.18a37.516,37.516,0,0,1-4.693.086c-1.088,0-2.1.2-2.09,1.54s1.014,1.54,2.114,1.516c.709-.012,1.43,0,2.139,0a4.569,4.569,0,0,1,1,9.069c-.183.049-.367.073-.587.11Z" transform="translate(3.848 4.549)" fill="url(#linear-gradient)"/>
      <path id="Path_1376" data-name="Path 1376" d="M32.422,41.59h13.1c1.088,0,2.053.159,2.2,1.454.122,1.014-.709,1.613-2.2,1.613H19.173c-1.027-.024-1.833-.4-1.833-1.54s.782-1.528,1.821-1.528H32.422Z" transform="translate(3.853 9.242)" fill="url(#linear-gradient)"/>
      <path id="Path_1377" data-name="Path 1377" d="M32.409,49.629H19.735c-.428,0-.966.122-1.247-.1A2.563,2.563,0,0,1,17.4,48.089c-.037-.428.526-1.027.966-1.369.281-.22.819-.159,1.234-.159H45.951c1.051.037,1.8.5,1.748,1.613-.037,1.014-.77,1.454-1.76,1.454H32.409Z" transform="translate(3.866 10.345)" fill="url(#linear-gradient)"/>
      <path id="Path_1378" data-name="Path 1378" d="M32.6,51.57h12.98c1.1,0,2.127.183,2.127,1.5s-1,1.528-2.114,1.516q-13.053-.018-26.107,0c-1.1,0-2.114-.171-2.127-1.5s1.014-1.528,2.114-1.516C23.85,51.582,28.226,51.57,32.6,51.57Z" transform="translate(3.858 11.46)" fill="url(#linear-gradient)"/>
      <path id="Path_1379" data-name="Path 1379" d="M38.111,28.52h4.706c1,0,1.7.464,1.723,1.491a1.48,1.48,0,0,1-1.662,1.564c-3.19.024-6.368.024-9.558,0a1.459,1.459,0,0,1-1.65-1.564c.024-1.027.721-1.479,1.736-1.479h4.706Z" transform="translate(7.038 6.338)" fill="url(#linear-gradient)"/>
      <path id="Path_1380" data-name="Path 1380" d="M38.04,36.548c-1.479,0-2.946-.012-4.424,0-1.1.012-1.956-.354-1.956-1.552,0-1.112.819-1.516,1.858-1.516h9.13c1.027,0,1.858.391,1.882,1.491.024,1.186-.819,1.589-1.931,1.577C41.083,36.523,39.556,36.548,38.04,36.548Z" transform="translate(7.036 7.44)" fill="url(#linear-gradient)"/>
      <path id="Path_1381" data-name="Path 1381" d="M38.1,26.557H33.393c-1,0-1.711-.452-1.723-1.479s.66-1.528,1.674-1.528H42.89c1.014,0,1.674.513,1.65,1.54s-.746,1.467-1.736,1.467Z" transform="translate(7.038 5.233)" fill="url(#linear-gradient)"/>
    </g>
  </g>
</svg>
