<svg xmlns="http://www.w3.org/2000/svg" xmlns:xlink="http://www.w3.org/1999/xlink" width="360" height="180" viewBox="0 0 360 180">
  <defs>
    <linearGradient id="linear-gradient" x1="44.03" y1="0.5" x2="45.03" y2="0.5" gradientUnits="objectBoundingBox">
      <stop offset="0" stop-color="#4087e3"/>
      <stop offset="1" stop-color="#8e41f9"/>
    </linearGradient>
  </defs>
  <g id="Blog_art" transform="translate(180 90)">
    <g id="Group_353" data-name="Group 353" transform="translate(-180 -90)">
      <rect id="Rectangle_435" data-name="Rectangle 435" width="360" height="180" fill="#fff" opacity="0"/>
      <g id="Group_351" data-name="Group 351">
        <path id="Path_1408" data-name="Path 1408" d="M290.136,81.462a3.368,3.368,0,0,1,1.847-1.446,1.271,1.271,0,0,1,1.847,1.243,5.913,5.913,0,0,1-.322,1.6c1.645-.059,1.932.466,1.422,2.561,1.091.127,1.359.463,1.194,1.56a2.45,2.45,0,0,1-.29,1,1.816,1.816,0,0,0,.086,2.148,40.106,40.106,0,0,0,3.911,6.2c5.174,5.865,8.578,12.745,11.415,19.941,2.035,5.158,4.388,10.2,5.918,15.547a33.136,33.136,0,0,1,1.339,12.754,14.209,14.209,0,0,1-3.543,7.8,7.954,7.954,0,0,1-4.053,2.433,27.434,27.434,0,0,1-7.935.976,10.078,10.078,0,0,1-7.418-3.383,60.674,60.674,0,0,1-8.7-12.173c-1.866-3.308-3.64-6.669-5.61-9.919-.1-.166-.21-.326-.422-.652.588,5.1.681,10.026.782,14.954.107,5.206.568,3.039,1,8.224.074.893.535,1.8,0,2.712-.11.187.226.212.363.277a23.2,23.2,0,0,1,2.977,1.578,7.479,7.479,0,0,1,1.66,1.273,2.288,2.288,0,0,0,2.382.823c6.189-.864,12.44-.429,18.656-.795,2.745-.161,5.494-.269,8.241-.4.225-.011.451-.047.674-.037.478.019,1.158-.138,1.2.545.036.638-.636.7-1.12.743-2.865.232-5.729.539-8.6.624-6.275.186-12.537.746-18.821.684-.512,0-.825.1-.747.755s-.344,1.021-1.013.992a7.87,7.87,0,0,1-.945-.163c.219.638.7,1.279.083,1.857-.58.544-1.223.162-1.829-.025-.171.149-.006.278.017.4.137.741-.085,1.013-.86,1.006a6.943,6.943,0,0,1-2.241-.558c.055,1.079-.262,1.342-1.506,1.057a60.7,60.7,0,0,0-6.53-.923,12.59,12.59,0,0,0-1.273-.076,6.692,6.692,0,0,0-3.035.527,13.555,13.555,0,0,1-5.68.8c-6.194.025-12.317.89-18.471,1.392-4.7.383-9.35,1.245-14.106,1.252a92.705,92.705,0,0,1-14.576-.916,31.029,31.029,0,0,1-4.343-.8,1.044,1.044,0,0,0-.512-.011,46.481,46.481,0,0,1-9.331.754c-1.1.028-2.2.089-3.3.146-.431.022-.857,0-.9-.536-.038-.483.383-.633.754-.674a20.374,20.374,0,0,1,3.59-.217c2.43.157,4.835-.225,7.28-.239-.025-.266-.237-.26-.37-.331a7.334,7.334,0,0,1-3.294-3.856,23.563,23.563,0,0,1-1.479-6.79c-.637-6.4-1.111-5.457-1.559-11.869-.378-5.416-.807-10.827-.769-16.262a43.806,43.806,0,0,1,2.205-14.39,20.385,20.385,0,0,1,11.319-12.423c4.817-2.156,9.748-4.017,14.647-5.965,1.393-.554,2.771-1.145,4.153-1.726.239-.1.5-.145.443-.559q-.554-3.786-1.044-7.58c-.08-.609-.208-.883-.96-.714a2.482,2.482,0,0,1-2.428-1.048,7.353,7.353,0,0,1-1.539-3.374c-.064-.295-.1-.516-.489-.49-3.458.222-5.355-3.758-3.511-6.83a.793.793,0,0,0-.121-1.176,18.785,18.785,0,0,1-2.466-2.918,5.5,5.5,0,0,1-.983-3.617,3.014,3.014,0,0,1,2.881-2.836c.387-.032.479-.107.465-.51-.12-3.35,1.239-5.41,4.336-6.546.376-.138.338-.377.375-.627A9.926,9.926,0,0,1,232.843,49a7.123,7.123,0,0,1,7.324-2.523.631.631,0,0,0,.818-.369,9.229,9.229,0,0,1,3.737-3.589,3.977,3.977,0,0,1,5.051.747,5.184,5.184,0,0,1,4.165-3.293c2.864-.545,4.571.669,5.032,3.549a5.3,5.3,0,0,1,3.257-.6,2.928,2.928,0,0,1,2.414,4.361c-.179.4-.237.588.257.806a1.927,1.927,0,0,1,1.059,1.777,5.193,5.193,0,0,1-3.116,4.8,8.742,8.742,0,0,1-3.255.751c.485,1.478,1.091,2.872,1.469,4.339a76.324,76.324,0,0,0,2.9,9.22c.364.918.125,1.366-.8,1.759A56.719,56.719,0,0,1,251.6,73.885c-.393.075-.787.144-1.18.22-.886.171-.9.2-.382.987a5.074,5.074,0,0,0,4.216,2.213,17.252,17.252,0,0,0,6.248-1.062c1.026-.318,2.031-.694,3.087-.922a1.03,1.03,0,0,1,1.3.67,3.251,3.251,0,0,1-1.118,4.528,9.656,9.656,0,0,1-4.252,1.573c-.585.086-.646.3-.6.816.209,2.3.812,4.529,1.019,6.822.039.422.361.433.625.526a51.387,51.387,0,0,0,7.151,1.66c3.817.766,7.452,1.943,10.435,4.6a36.016,36.016,0,0,1,6.377,7.921c3.937,6.27,7.324,12.853,10.966,19.29,2.018,3.567,4.135,7.078,6.21,10.613a4.078,4.078,0,0,0,1.161,1.358c.356.246.568.218.665-.256a4.948,4.948,0,0,0-.175-2.146,150.976,150.976,0,0,0-7.48-22.215c-1.516-3.78-3.051-7.557-4.85-11.212a43.638,43.638,0,0,0-3.731-5.7,14.139,14.139,0,0,1-2.669-6.364,15.717,15.717,0,0,1,.014-2.245,3.785,3.785,0,0,1,1.54-3.225,1.019,1.019,0,0,1,1.583.669,5.259,5.259,0,0,1,.118,2.232,11.139,11.139,0,0,0-.079,2.167c.034.327-.028.628-.409.685s-.539-.208-.616-.523a3.627,3.627,0,0,1-.091-1.264,10.05,10.05,0,0,0-.063-2.538,5.8,5.8,0,0,0-.812,3.058A3.191,3.191,0,0,0,285.992,88a14.553,14.553,0,0,0,2.8,5.746c.837,1.024,1.573,2.129,2.33,3.216a.728.728,0,0,0,1.011.28c1.51-.549,2.831-1.488,4.327-2.062.469-.18.365-.521.187-.863-.472-.91-1.054-1.757-1.508-2.677-.088-.179-.176-.361-.276-.532a3.067,3.067,0,0,1-.082-3.638.7.7,0,0,0,.128-.666c-.415.03-.9.368-1.231-.124s-.083-.961.131-1.42a2.9,2.9,0,0,0,.141-.347c.064-.212.2-.454.034-.64-.188-.2-.418-.01-.624.05-.434.127-.887.315-1.247-.12-.345-.416-.153-.854.034-1.269a2.759,2.759,0,0,0,.455-1.174c0-.223.04-.481-.175-.618-.23-.147-.43.031-.61.158a9.47,9.47,0,0,0-1.232,1.093c-.3.172-.628.279-.827-.1C289.546,81.894,289.812,81.649,290.136,81.462Z" fill="#211e1f"/>
        <path id="Path_1409" data-name="Path 1409" d="M285.61,86.96a8.131,8.131,0,0,1,.6-3.215c.087-.221.188-.534.492-.479s.286.376.279.619c-.032.973-.117,1.946-.1,2.918.005.426-.143,1.177.462,1.158s.184-.695.219-1.065c.092-.968.127-1.942.147-2.915.013-.656-.008-1.434-.732-1.652-.743-.223-1.126.482-1.507,1a8.4,8.4,0,0,0-.831,2.232,39.027,39.027,0,0,1-3.469-4.4c-.7-.944-1.333-1.935-1.969-2.923a.793.793,0,0,0-.783-.454.941.941,0,0,1-.15,0c-3.349-.289-2.881.055-4.253-3.182a16.066,16.066,0,0,1-1.143-6.679c.009-.451.134-.736.543-.854,3.367-.967,6.364-2.763,9.512-4.222,7.827-3.627,15.59-7.389,23.343-11.171,2.2-1.074,4.411-2.136,6.613-3.212,1.248-.609,1.678-.551,2.706.4a9.021,9.021,0,0,1,2.142,3.653c.359.96.685,1.934.971,2.917.178.611.466.9,1.111.663a.431.431,0,0,1,.073-.018c1.35-.246,1.353-.171,1.811,1.1a38.941,38.941,0,0,1,1.348,5.377,5.36,5.36,0,0,1,.066,1.718,2.321,2.321,0,0,1-1.989,2.228c-.7.134-.78.475-.628,1.053a24.651,24.651,0,0,1,1.027,5.439,11.2,11.2,0,0,1-.524,3.616,1.261,1.261,0,0,1-1.453.979c-2.3-.087-4.6-.192-6.894-.3-4.85-.224-9.7-.3-14.554-.167-3.1.082-6.2.224-9.3.341-.958.036-.96.04-.467.9a28.231,28.231,0,0,0,1.81,3.1c-.1.262-.476.449-.3.777.16.3.435.1.664.047.343.064.462.363.614.612.714,1.171,1.371,2.377,2.131,3.522a2.364,2.364,0,0,1-.1,2.987,7.479,7.479,0,0,1-1.185,1.245,2.13,2.13,0,0,1-2.734.035A12.7,12.7,0,0,1,285.61,86.96Z" fill="url(#linear-gradient)"/>
        <path id="Path_1410" data-name="Path 1410" d="M332.24,77.821a.444.444,0,0,1,.445-.37,16.755,16.755,0,0,1,4.844-.29c1.769.276,2.345,1.211,1.663,2.846-.2.477-.01.6.33.773a31.405,31.405,0,0,0,10.038,3.141c.79.112,1.569.3,2.355.451a.714.714,0,0,1,.656.965.8.8,0,0,1-.991.69c-4.45-.948-8.9-1.887-12.867-4.3-.933-.568-1.037-.873-.586-1.9.507-1.157.432-1.307-.8-1.64a14.5,14.5,0,0,0-3.654-.259A5.05,5.05,0,0,1,332.24,77.821Z" fill="#fff"/>
        <path id="Path_1411" data-name="Path 1411" d="M341.063,58.85c-.263-.029-.612-.055-.956-.109-.65-.1-1.084-.361-1.113-1.145-.029-.807-.288-.938-1.076-.766a9.46,9.46,0,0,0-2.337.991,8.015,8.015,0,0,1-2.573.99c-.172.024-.386.081-.437-.149-.06-.27.2-.214.346-.266a16.493,16.493,0,0,0,2.793-1.588,9.027,9.027,0,0,1,2.28-1.112c1.107-.29,1.749.048,1.989,1.179.117.555.339.687.875.679a49.17,49.17,0,0,0,7.92-1.166c1.4-.252,2.812-.428,4.2-.782.47-.12,1-.062,1.075.6.062.565-.323.8-.816.878q-5.7.858-11.406,1.7C341.6,58.82,341.374,58.825,341.063,58.85Z" fill="#fff"/>
        <path id="Path_1412" data-name="Path 1412" d="M334.727,40.522a.968.968,0,0,1-.853-.434c-.282-.538-.632-.439-1.027-.2a16.464,16.464,0,0,0-3.748,3.193c-.156.178-.246.518-.559.294-.257-.185-.114-.465.005-.681a8.788,8.788,0,0,1,2.084-2.335,8.4,8.4,0,0,1,2.39-1.654c.494-.191,1.011-.285,1.314.286.364.686.806.57,1.359.262q4.349-2.424,8.713-4.819c.678-.373,1.376-.71,2.065-1.064.35-.181.733-.334,1,.076.282.437-.022.776-.356,1.008a6.765,6.765,0,0,1-1.005.488c-3.188,1.494-6.309,3.118-9.385,4.83A4.721,4.721,0,0,1,334.727,40.522Z" fill="#fff"/>
        <path id="Path_1413" data-name="Path 1413" d="M325.857,144.517c-.02.4-.017.8-.069,1.193-.042.317-.211.6-.589.524-.35-.069-.348-.368-.307-.657a8.835,8.835,0,0,0-.177-4.142.408.408,0,0,1,.219-.563c.344-.106.3.246.366.425A8.4,8.4,0,0,1,325.857,144.517Z" fill="#201e1f"/>
        <path id="Path_1414" data-name="Path 1414" d="M196.583,104.187a21.532,21.532,0,0,0-1.546,4.855c-.049.194-.074.394-.132.584-.094.307-.264.578-.631.508s-.315-.409-.28-.671a3.82,3.82,0,0,1,.211-.871,32.027,32.027,0,0,1,1.814-3.862A.912.912,0,0,1,196.583,104.187Z" fill="#212020"/>
        <path id="Path_1415" data-name="Path 1415" d="M321.974,146.677a11.118,11.118,0,0,1-1.331,4.3,1.781,1.781,0,0,1-.261.363c-.2.205-.439.389-.707.135-.24-.228-.081-.463.089-.655a8.712,8.712,0,0,0,1.738-3.993c.039-.167.121-.421.045-.5-.2-.2-.213-.357-.04-.56.069-.082.163-.154.251-.1.215.143.186.391.214.61C321.982,146.361,321.974,146.436,321.974,146.677Z" fill="#222"/>
        <path id="Path_1416" data-name="Path 1416" d="M252.412,30.806a27.264,27.264,0,0,0-.333,2.752.505.505,0,0,1-.532.521c-.3.007-.331-.253-.388-.469a3.95,3.95,0,0,1,.161-1.773,9.532,9.532,0,0,0,.161-1.111c.024-.363.182-.582.545-.572C252.461,30.166,252.454,30.485,252.412,30.806Z" fill="#222021"/>
        <path id="Path_1417" data-name="Path 1417" d="M201.286,106.227c-.209.545-.44,1.083-.62,1.637a11.157,11.157,0,0,0-.681,2.743.884.884,0,0,1-.3.661.439.439,0,0,1-.481.109c-.153-.074-.152-.243-.145-.392a5.734,5.734,0,0,1,.512-1.861A7.708,7.708,0,0,1,201.286,106.227Z" fill="#212021"/>
        <path id="Path_1418" data-name="Path 1418" d="M211.855,50.258c.934.277,1.87.547,2.8.837.228.071.4.243.293.515-.1.256-.31.453-.581.329-.887-.4-1.854-.609-2.7-1.1-.151-.087-.32-.192-.249-.405S211.682,50.252,211.855,50.258Z" fill="#222122"/>
        <path id="Path_1419" data-name="Path 1419" d="M209.662,96.669a.584.584,0,0,1-.383.51,6.2,6.2,0,0,0-2.389,1.871c-.087.127-.221.224-.375.106a.245.245,0,0,1-.035-.341,6.169,6.169,0,0,1,2.789-2.407C209.543,96.292,209.662,96.414,209.662,96.669Z" fill="#222"/>
        <path id="Path_1420" data-name="Path 1420" d="M272.416,41.629c-.057.094-.1.282-.212.334a5.5,5.5,0,0,0-1.362,1.137.333.333,0,0,1-.472.052.437.437,0,0,1-.108-.48,3.96,3.96,0,0,1,1.729-1.467C272.267,41.177,272.414,41.3,272.416,41.629Z" fill="#222"/>
        <path id="Path_1421" data-name="Path 1421" d="M205.268,95.028c-.319-.073-.356-.282-.34-.522a2.454,2.454,0,0,1,1.251-1.581.386.386,0,0,1,.417.063.336.336,0,0,1,.007.478A3.109,3.109,0,0,0,205.49,94.9C205.473,94.964,205.33,95,205.268,95.028Z" fill="#222"/>
        <path id="Path_1422" data-name="Path 1422" d="M221.046,41.014c0-.757.183-.906.687-.611a5.414,5.414,0,0,1,1.506,1.525c.138.182.173.364-.044.508s-.316-.035-.42-.17c-.317-.412-.625-.832-.942-1.244C221.609,40.733,221.368,40.515,221.046,41.014Z" fill="#242424"/>
        <path id="Path_1423" data-name="Path 1423" d="M315.857,154.826c-.236-.077-.375-.263-.194-.487a4.791,4.791,0,0,1,1.425-1.04c.21-.12.381.037.331.306A4.417,4.417,0,0,1,315.857,154.826Z" fill="#262626"/>
        <path id="Path_1424" data-name="Path 1424" d="M237.857,104.791c-1.217-3.27-2.558-6.305-3.946-9.319-.155-.337,0-.438.226-.578.6-.366,1.211-.708,1.772-1.123a.675.675,0,0,1,1.079.146c2.895,3.621,6.225,6.844,9.386,10.221a11.874,11.874,0,0,0,3.07,2.819c.251.127.176.4.2.6.822,6.625,1.615,13.253,2.461,19.874.542,4.241,1.319,8.45,1.727,12.708.274,2.865.311,5.743.472,8.615.21,3.769.578.182.583,3.964,0,.6-.111.8-.762.8-5.153,0-10.311.156-15.448-.361-2.563-.259-5.123-.456-7.695-.581-2.014-.1-2.755-.8-3.163-2.773-.777-3.75-1.856-1.16-1.856-7.589a114.467,114.467,0,0,0-1.735-18.82c-.065-.394-.119-.792-.154-1.19-.027-.306-.111-.562-.465-.555a.571.571,0,0,0-.6.625,14.815,14.815,0,0,0,.175,2.543c.868,6.476,1.256,12.991,1.555,19.51.216,4.682.6,1.977,1.834,6.526a3.885,3.885,0,0,0,3.528,3.075c2.033.285,4.1.153,6.133.438,6.22.872,12.485.522,18.733.651,5.027.1,10.051.229,15.061.711.561.054.725.13.582.78a63.039,63.039,0,0,0-1.077,7.57c-.043.453-.153.62-.641.681-4.276.532-8.58.619-12.874.857-2.976.166-5.925.54-8.872.957-2.228.316-4.5.238-6.712.7a49.311,49.311,0,0,1-8.062.627,84.49,84.49,0,0,1-14.67-.7,23.613,23.613,0,0,1-5.753-1.27,6.613,6.613,0,0,1-3.779-3.733,22.021,22.021,0,0,1-1.523-7.082c-.619-8-1.236-8.657-1.771-16.666a97.7,97.7,0,0,1-.2-14.17,38.084,38.084,0,0,1,2.643-12.033,17.9,17.9,0,0,1,8.795-9.429c3.951-1.955,8.069-3.49,12.125-5.185,1.521-.636,3.025-1.315,4.527-2,.339-.153.527-.282.654.243.828,3.409,2.239,6.623,3.368,9.932.14.409.332.846.824.872.45.025.674-.367.886-.715a47.926,47.926,0,0,1,2.9-4.283c.256-.335.478-.722.062-1.052-.367-.291-.65.063-.893.294a12.909,12.909,0,0,0-1.734,2.347C238.533,103.734,238.24,104.2,237.857,104.791Z" fill="#fefefe"/>
        <path id="Path_1425" data-name="Path 1425" d="M281.545,155.262c-2.245-.817-4.469-.553-6.69-.393-.673.048-1.347.084-2.021.115a.934.934,0,0,1-.515-.043,6.823,6.823,0,0,0-3.676-.812c-4.191-.282-8.378-.681-12.586-.607-.428.007-.476-.175-.485-.532-.147-6.378-.759-5.383-1.068-11.753-.191-3.946-.879-7.851-1.434-11.763-.6-4.236-.855-8.509-1.393-12.753-.393-3.1-.859-6.191-1.56-9.24a.921.921,0,0,1,.3-1.033,4.214,4.214,0,0,0,.812-1.07c2.1-3.847,4.678-7.39,7.041-11.07.593-.925,1.158-1.869,1.72-2.814.154-.259.248-.445.616-.248a11.927,11.927,0,0,0,3.183,1.088c.333.07.473.141.341.528-1.109,3.237-2.2,6.481-3.338,9.862-1.192-1.488-2.8-2.3-4.053-3.538a.6.6,0,0,0-.817,0c-.211.185.029.414.181.568q2.133,2.164,4.28,4.314c.434.433.786.293,1.075-.208a24.863,24.863,0,0,0,1.465-3.925c.819-2.2,1.545-4.437,2.319-6.654.078-.226.049-.587.5-.46a78.284,78.284,0,0,1,7.571,2.133,16.392,16.392,0,0,1,5.989,4.645,57.27,57.27,0,0,1,7.006,10.259c3.8,6.576,7.226,13.367,11.194,19.851,1.043,1.705,2.1,3.4,3.153,5.1a5.578,5.578,0,0,0,1.477,1.678c1.111.786,2.086.408,2.288-.932a14.6,14.6,0,0,0-.46-4.979,75.221,75.221,0,0,0-3.491-11.619c-2.131-5.793-4.321-11.563-6.955-17.152-.384-.814-.759-1.633-1.183-2.426-.2-.382-.105-.545.236-.753a26.31,26.31,0,0,1,2.752-1.358,16.484,16.484,0,0,0,1.888-.909c.493-.308.721-.265,1.127.187,5.179,5.766,8.612,12.537,11.422,19.674,1.967,5,4.186,9.9,5.775,15.039a36.66,36.66,0,0,1,1.731,12.422,12.871,12.871,0,0,1-3.067,7.5,6.181,6.181,0,0,1-3.481,2.1,25.243,25.243,0,0,1-8.247.817,8.359,8.359,0,0,1-5.208-2.364,43.27,43.27,0,0,1-6.394-8.108c-2.708-4.208-4.959-8.68-7.465-13-.927-1.6-2-3.112-2.806-4.783-.176-.365-.437-.73-.93-.563a.982.982,0,0,0-.621,1.157c.1.943.258,1.881.384,2.822a167.865,167.865,0,0,1,.893,16.851c.177,5.326.465,3.3,1.177,8.583C281.524,154.843,281.526,154.992,281.545,155.262Z" fill="#fefefe"/>
        <path id="Path_1426" data-name="Path 1426" d="M247.8,54.4c3.033,1.866,5.813.43,6.67-2.181.49.452.957.9,1.437,1.323a6.664,6.664,0,0,0,2.371,1.545,1.124,1.124,0,0,1,.872,1.034c.062.368.168.729.269,1.156a7.606,7.606,0,0,0-4.717.985,3.975,3.975,0,0,0-1.264.924,1.015,1.015,0,0,0,.149,1.62c.164.14.231.078.37.019a15.381,15.381,0,0,1,4.923-1.44,1.25,1.25,0,0,0,.959-.728c.688,2.408,1.325,4.714,2.011,7.005a27.241,27.241,0,0,0,1.173,3.317c.3.667.067.834-.489,1.047a36.335,36.335,0,0,1-4.849,1.285c-2.629.608-5.244,1.278-7.92,1.662a3.052,3.052,0,0,0-.58.15c-.759.268-.874.519-.608,1.294a5.773,5.773,0,0,0,5.687,3.967,23.144,23.144,0,0,0,7.4-1.448c.622-.188,1.242-.385,1.852-.605.34-.123.479-.012.611.3a2.15,2.15,0,0,1-1.043,2.98,13.191,13.191,0,0,1-3.366,1c-2.018.468-2.08.542-1.927,2.594.158,2.125.654,4.2,1.017,6.29a3.681,3.681,0,0,1-.573,2.864c-2.68,4.1-5.22,8.289-7.951,12.356-.18.268-.366.533-.6.878-1.32-1.375-2.612-2.712-3.894-4.059-2.656-2.79-5.359-5.533-8.223-8.112a1.271,1.271,0,0,1-.442-.821c-.426-2.917-.746-5.852-1.362-8.74a.891.891,0,0,1,.058-.644A5.854,5.854,0,0,0,235.4,77.5a7.589,7.589,0,0,0-1.548-1.5,4.035,4.035,0,0,1-.962-1.327.941.941,0,0,1,.527-1.407c.225-.109.461-.193.69-.293a.939.939,0,0,1,1.406.5,9.34,9.34,0,0,0,1.93,2.747c.352.322.732.66,1.263.384s.456-.779.365-1.253a18.521,18.521,0,0,0-1.352-3.484c-1.168-2.84-2.363-5.668-3.363-8.653a2.265,2.265,0,0,0,1.674-.562,2.009,2.009,0,0,0,.593-1.637c-.022-.273.128-.223.325-.223a3.061,3.061,0,0,0,3.3-2.708c.088-.5.246-.4.571-.274a5.417,5.417,0,0,0,3.025.29A4.515,4.515,0,0,0,247.8,54.4Z" fill="#fefefe"/>
        <path id="Path_1427" data-name="Path 1427" d="M288.431,161.545a1.072,1.072,0,0,1-.818-.289,18.941,18.941,0,0,0-4.934-2.129c-.382-.139-.72-.087-.883.3s.167.6.453.742a19.691,19.691,0,0,1,3.245,1.861,5.775,5.775,0,0,1,1.491,1.554,2.629,2.629,0,0,1-1.613-.556,11.749,11.749,0,0,0-4.033-1.55c-.383-.083-.774-.174-.893.356-.111.49.272.563.61.678a8.278,8.278,0,0,1,3.754,2.2,22.681,22.681,0,0,1-2.945-.942c-.617-.2-1.238-.39-1.859-.581a.494.494,0,0,0-.364.915,14.05,14.05,0,0,1,1.373.88,48.486,48.486,0,0,0-6.124-1.077,21,21,0,0,0-3.07-.09c-.44.024-.544-.113-.539-.536a55.823,55.823,0,0,1,.784-7.228c.039-.27.109-.407.425-.323a18.242,18.242,0,0,0,4.7.318,16.107,16.107,0,0,1,9.447,3.339A5.892,5.892,0,0,1,288.431,161.545Z" fill="#fdfdfd"/>
        <path id="Path_1428" data-name="Path 1428" d="M285.61,86.96a5.8,5.8,0,0,1,1.213,1.315,15.766,15.766,0,0,0,2.844,2.534,1.413,1.413,0,0,0,1.5.066,4.27,4.27,0,0,0,2.339-2.6,1.744,1.744,0,0,0-.288-1.5c-.9-1.5-1.811-2.991-2.719-4.486a4.39,4.39,0,0,1,1.559-1.374c.476-.269.763-.1.783.462a1.942,1.942,0,0,1-.286,1.216,4.588,4.588,0,0,0-.353.66.8.8,0,0,0,.021.919c.239.269.557.115.845.057.048-.009.09-.045.138-.056.344-.076.718-.506,1.012-.186s0,.755-.152,1.121c-.124.3-.275.59-.375.9a.614.614,0,0,0,.1.7c.223.2.463.087.7,0s.493-.347.684-.165c.214.2-.039.5-.1.753a1.115,1.115,0,0,1-.163.416,2.644,2.644,0,0,0,.044,3.2c.69,1.216,1.349,2.45,2.045,3.663.192.336.176.509-.206.659-1.7.665-3.218,1.711-4.95,2.313-.3.105-.459.14-.667-.155-1.266-1.8-2.612-3.543-3.82-5.379A13.042,13.042,0,0,1,285.61,86.96Z" fill="#fdfdfd"/>
        <path id="Path_1429" data-name="Path 1429" d="M229.608,59.527a3.543,3.543,0,0,1,2.05-2.144c.156-.035.314-.046.4.1.122.2-.021.342-.165.437-.291.192-.623.326-.9.539-.457.356-1.012.678-.79,1.429a.211.211,0,0,1-.244.283C229.64,60.094,229.562,59.835,229.608,59.527Z" fill="#efefef"/>
        <path id="Path_1430" data-name="Path 1430" d="M242.978,49.379a.463.463,0,0,1-.342.36,2.87,2.87,0,0,0-1.668,1.417c-.087.148-.17.344-.384.237-.19-.1-.147-.279-.093-.461a3.862,3.862,0,0,1,2.08-1.827C242.874,49.074,243,49.159,242.978,49.379Z" fill="#f0eff0"/>
        <path id="Path_1431" data-name="Path 1431" d="M226.509,65.377a3.612,3.612,0,0,0,1.385,2.421c.166.16.474.321.171.59-.261.233-.4-.071-.534-.213a4.174,4.174,0,0,1-1.207-1.857A.939.939,0,0,1,226.509,65.377Z" fill="#eceaeb"/>
        <path id="Path_1432" data-name="Path 1432" d="M250,47.792a4.137,4.137,0,0,1,2.332-1.195c.276-.051.679.1.619.468s-.39.137-.613.091a2.1,2.1,0,0,0-1.35.317A1.7,1.7,0,0,1,250,47.792Z" fill="#e5e4e4"/>
        <path id="Path_1433" data-name="Path 1433" d="M259.1,46.29c-.149-.023-.292,0-.33-.159s.071-.235.178-.289q.66-.33,1.332-.639a.269.269,0,0,1,.341.037.219.219,0,0,1-.023.328A5.648,5.648,0,0,1,259.1,46.29Z" fill="#eae8e9"/>
        <path id="Path_1434" data-name="Path 1434" d="M237.963,55.045c-.329-.1-.664-.189-.983-.317-.194-.078-.455-.2-.316-.475.113-.224.331-.124.524-.055a9.2,9.2,0,0,0,.916.278c.2.049.428.073.356.348C238.4,55.067,238.18,55.062,237.963,55.045Z" fill="#ebeaea"/>
        <path id="Path_1435" data-name="Path 1435" d="M254.733,49.021a2.706,2.706,0,0,0,1.689-.036c.151-.045.386-.087.427.148.039.218-.17.288-.34.3C255.878,49.456,255.221,49.581,254.733,49.021Z" fill="#d6d5d5"/>
        <path id="Path_1436" data-name="Path 1436" d="M247.177,51.966c-.037.232-.162.378-.353.329a.68.68,0,0,1-.51-.659c-.012-.172.107-.423.283-.355A1.25,1.25,0,0,1,247.177,51.966Z" fill="#e1dfe0"/>
        <path id="Path_1437" data-name="Path 1437" d="M317,76.087c-2.588-.094-5.035-.2-7.483-.268-6.4-.191-12.8-.042-19.2.261a.622.622,0,0,1-.726-.447,115.475,115.475,0,0,1-4.271-11.286c-.206-.682-.16-1.021.574-1.363,5.255-2.454,10.5-4.936,15.685-7.533q4.359-2.184,8.729-4.348c.239-.119.521-.4.741-.252.276.193-.02.5-.086.75a19.475,19.475,0,0,0-.129,6.86,42.942,42.942,0,0,0,4.57,14.976C315.834,74.323,316.42,75.135,317,76.087Z" fill="#fefefe"/>
        <path id="Path_1438" data-name="Path 1438" d="M312.273,58.593c-.12-.518.156-.74.777-.746a51.771,51.771,0,0,0,5.383-.283c.385-.045.562.051.506.477a12.154,12.154,0,0,0,1.2,6.544c.182.414.132.639-.306.8a52.613,52.613,0,0,0-4.959,1.9c-.379.181-.49-.013-.59-.3A35.732,35.732,0,0,1,312.273,58.593Z" fill="#fefefe"/>
        <path id="Path_1439" data-name="Path 1439" d="M311.869,54.267a6.966,6.966,0,0,1,.526-3.221,3.745,3.745,0,0,1,1.2-1.508c.8-.591.969-.57,1.528.265a17.209,17.209,0,0,1,1.894,4.782c.028.1.052.193.078.289.424,1.552.426,1.568-1.152,1.7a23.233,23.233,0,0,0-3.407.452c-.34.08-.506.025-.527-.37A22.686,22.686,0,0,1,311.869,54.267Z" fill="#fdfdfd"/>
        <path id="Path_1440" data-name="Path 1440" d="M319.939,72.7a8.565,8.565,0,0,1-.505,2.6c-.235.63-.462.55-.872.159a11.214,11.214,0,0,1-2.491-3.875c-.389-.919-.722-1.86-1.1-2.783-.162-.393-.077-.6.341-.708,1.089-.275,2.175-.557,3.256-.859.352-.1.517.014.59.345A24.107,24.107,0,0,1,319.939,72.7Z" fill="#fdfdfc"/>
        <path id="Path_1441" data-name="Path 1441" d="M321.744,64.226a12.544,12.544,0,0,1-1.591-6.593A12.58,12.58,0,0,1,321.744,64.226Z" fill="#faf6e8"/>
        <path id="Path_1442" data-name="Path 1442" d="M281.133,68.261a3.4,3.4,0,0,1-.189.4c-.34.548-.7,1.087-1.033,1.637-.11.179-.212.367-.452.283-.257-.089-.206-.317-.141-.5a5.835,5.835,0,0,1,1.217-2.119c.1-.11.217-.214.387-.138S281.125,68.025,281.133,68.261Z" fill="#f9f3df"/>
        <path id="Path_1443" data-name="Path 1443" d="M275.239,70.618a5.964,5.964,0,0,1,1.213-1.947.246.246,0,0,1,.335-.058.336.336,0,0,1,.137.325,1.12,1.12,0,0,1-.248.609,6.95,6.95,0,0,0-.878,1.285c-.058.153-.189.322-.4.24S275.27,70.779,275.239,70.618Z" fill="#faf2da"/>
        <path id="Path_1444" data-name="Path 1444" d="M278.67,68.895a4.462,4.462,0,0,1-1.409,1.815c-.227.055-.408-.055-.28-.25a16.823,16.823,0,0,1,1.314-1.77C278.445,68.515,278.658,68.679,278.67,68.895Z" fill="#fbefcf"/>
        <path id="Path_1445" data-name="Path 1445" d="M221.658,149.556a10.317,10.317,0,0,1-2.727-.81c-.247-.136-.564,7.04-.374,6.656.183-.368.47-.271.761-.132.761.364,1.5-6.561,2.355-6.443.211.029.395.142.332.4S221.756,149.582,221.658,149.556Z" fill="#222121"/>
        <path id="Path_1446" data-name="Path 1446" d="M246.452,108.3a8.053,8.053,0,0,1-1.332,2c-.115.1-.262.171-.4.049a.318.318,0,0,1-.043-.412,2.475,2.475,0,0,1,.322-.5,5.783,5.783,0,0,0,.9-1.278c.078-.163.209-.3.417-.218C246.443,107.985,246.469,108.114,246.452,108.3Z" fill="#242424"/>
        <path id="Path_1447" data-name="Path 1447" d="M221.667,153.693a.814.814,0,0,1,.2-.093c.53-.126,1.061-.251,1.6-.356a.233.233,0,0,1,.278.191c.02.125-.049.336-.132.305-.572-.218-.938.3-1.426.363C221.948,154.132,221.731,154.133,221.667,153.693Z" fill="#272727"/>
        <path id="Path_1448" data-name="Path 1448" d="M233.182,148.535c-.247-.087-.691.123-.748-.352-.028-.227.256-.227.4-.179.283.091.729-.077.814.331C233.711,148.615,233.407,148.558,233.182,148.535Z" fill="#252525"/>
        <path id="Path_1449" data-name="Path 1449" d="M303.334,143.1a9.632,9.632,0,0,1,1.561-2.494.309.309,0,0,1,.416-.013.277.277,0,0,1,.068.4,11.382,11.382,0,0,0-1.349,2.323c-.089.141-.2.311-.414.249S303.392,143.32,303.334,143.1Z" fill="#232222"/>
        <path id="Path_1450" data-name="Path 1450" d="M302.675,140.634a1.423,1.423,0,0,1-.172.217,4.956,4.956,0,0,0-1.276,1.978c-.079.2-.194.39-.416.341-.241-.053-.264-.31-.2-.493a6,6,0,0,1,1.5-2.177C302.3,140.322,302.528,140.334,302.675,140.634Z" fill="#222"/>
        <path id="Path_1451" data-name="Path 1451" d="M282.185,120.281c.329.089.306.321.135.505-.473.51-.977.992-1.471,1.483a.145.145,0,0,1-.249-.024c-.042-.078-.091-.212-.054-.266a8.544,8.544,0,0,1,1.49-1.664C282.069,120.287,282.131,120.292,282.185,120.281Z" fill="#292929"/>
        <path id="Path_1452" data-name="Path 1452" d="M284.631,124.046c.269.077.313.285.151.5a12.117,12.117,0,0,0-.85,1.031c-.112.185-.312.129-.406-.073C283.362,125.152,284.2,124.018,284.631,124.046Z" fill="#292929"/>
        <path id="Path_1453" data-name="Path 1453" d="M247.772,60.245c.849,0,1.569.355,1.589.84.036.858-.63,1.12-1.271,1.222-3.327.525-6.289,2.1-9.412,3.211a.957.957,0,0,1-1.144-.226c-.285-.335-.1-.715.1-1.043a3.017,3.017,0,0,1,.931-.857,16.458,16.458,0,0,1,6.426-2.571A15.632,15.632,0,0,1,247.772,60.245Z" fill="#221e1f"/>
        <path id="Path_1454" data-name="Path 1454" d="M245.7,64.591a3.458,3.458,0,0,1,2.5.9c.882.947.649,1.917-.591,2.2q-2.225.507-4.479.874c-1.173.189-1.622-.43-1.214-1.56A3.657,3.657,0,0,1,245.7,64.591Z" fill="#221e1f"/>
        <path id="Path_1455" data-name="Path 1455" d="M258.5,60.788a2.7,2.7,0,0,1,1.762.757,1.213,1.213,0,0,1-.414,2.141c-1.145.43-2.3.85-3.473,1.187-1.067.307-1.507-.148-1.334-1.254A3.292,3.292,0,0,1,258.5,60.788Z" fill="#211e1f"/>
        <path id="Path_1456" data-name="Path 1456" d="M252.207,61.741a12.653,12.653,0,0,1,1.036,2.788,1.451,1.451,0,0,0,1.191,1.153c1.354.3,2.117,1.141,2.1,2.105a2.54,2.54,0,0,1-2.177,2.164,2,2,0,0,1-1.181.053c-.249-.091-.481-.215-.47-.509s.247-.387.52-.43a6.254,6.254,0,0,0,1.937-.558c.329-.17.725-.332.711-.783-.013-.4-.373-.572-.688-.718a4.985,4.985,0,0,0-1.118-.422,2.006,2.006,0,0,1-1.643-1.646c-.188-.75-.31-1.516-.493-2.267C251.85,62.322,252.1,62.153,252.207,61.741Z" fill="#201e1f"/>
        <path id="Path_1457" data-name="Path 1457" d="M241.488,66.073a4.378,4.378,0,0,1,5.651-2.051c.163.089.425.15.329.413s-.28.092-.433.035a4.188,4.188,0,0,0-5.143,1.326C241.8,65.9,241.747,66.067,241.488,66.073Z" fill="#222121"/>
        <path id="Path_1458" data-name="Path 1458" d="M247.344,71.84a4.142,4.142,0,0,1,2.064-2.742Z" fill="#272727"/>
        <path id="Path_1459" data-name="Path 1459" d="M243.37,72.991a3.736,3.736,0,0,1,1.562-2.545C244.572,71.39,243.767,72.064,243.37,72.991Z" fill="#333"/>
        <path id="Path_1460" data-name="Path 1460" d="M258.907,68.526a6.068,6.068,0,0,1,1.183-2.054.183.183,0,0,1,.264-.04c.049.036.1.159.08.187A7.587,7.587,0,0,1,258.907,68.526Z" fill="#272727"/>
        <path id="Path_1461" data-name="Path 1461" d="M257.561,68.772a4.277,4.277,0,0,1,1.5-2.509C258.807,67.249,257.948,67.866,257.561,68.772Z" fill="#282828"/>
        <path id="Path_1462" data-name="Path 1462" d="M247.133,69.9a16.174,16.174,0,0,0-1.909,2.645A3.727,3.727,0,0,1,247.133,69.9Z" fill="#333"/>
        <path id="Path_1463" data-name="Path 1463" d="M240.365,81.7c-.009.108,0,.359-.253.367-.237.008-.192-.249-.217-.4-.069-.44-.119-.882-.178-1.324-.024-.18-.031-.394.181-.419.23-.027.233.211.259.375C240.228,80.731,240.288,81.172,240.365,81.7Z" fill="#3c3c3c"/>
        <path id="Path_1464" data-name="Path 1464" d="M240.9,82.388a3.7,3.7,0,0,1-.127-2.155l.206-.015.194,2.157Z" fill="#272727"/>
        <path id="Path_1465" data-name="Path 1465" d="M253.286,82.269c.209.221.588.317.7.663.046.138-.129.294-.289.233-.319-.121-.671-.251-.745-.645C252.925,82.36,253.067,82.261,253.286,82.269Z" fill="#2f2f2f"/>
        <path id="Path_1466" data-name="Path 1466" d="M254.447,82.607a1.454,1.454,0,0,1-.54-.582c-.034-.085.017-.22.15-.185a.8.8,0,0,1,.591.582C254.677,82.528,254.551,82.576,254.447,82.607Z" fill="#232323"/>
        <path id="Path_1467" data-name="Path 1467" d="M245.1,65.427c-.3.812-.235,1.406.533,1.83a11.03,11.03,0,0,1-2.743.561c-.556.061-.395-.348-.315-.6C242.943,66.062,243.909,65.706,245.1,65.427Z" fill="#f8f7f8"/>
        <path id="Path_1468" data-name="Path 1468" d="M247.211,65.784c.351.3.769.5.658.949-.041.166-.423.165-.671.14-.211-.021-.211-.122-.156-.3C247.113,66.346,247.145,66.1,247.211,65.784Z" fill="#efedee"/>
        <path id="Path_1469" data-name="Path 1469" d="M257.118,61.9a1.237,1.237,0,0,0,.6,1.675c-.483.231-.892.452-1.319.626-.462.188-.716.039-.665-.5A2.239,2.239,0,0,1,257.118,61.9Z" fill="#f3f3f3"/>
        <path id="Path_1470" data-name="Path 1470" d="M259.5,62.03c.244.2.516.394.41.679-.085.225-.389.248-.675.237Z" fill="#dcdbdb"/>
      </g>
      <g id="Group_352" data-name="Group 352">
        <path id="Path_1471" data-name="Path 1471" d="M70.927,107.25a11.17,11.17,0,0,1,8.738,12.355q-.772,4.809-5.822,9.185L58.836,141.795,30.918,109.578,45.42,97.01q4.911-4.256,9.636-4.413a10.793,10.793,0,0,1,10.671,9.718,10.2,10.2,0,0,1-1.7,6.056A9.918,9.918,0,0,1,70.927,107.25ZM50.06,115.81l5.14-4.455a6.016,6.016,0,0,0,2.224-3.413,4.037,4.037,0,0,0-1.135-3.4,4.133,4.133,0,0,0-3.22-1.629,5.916,5.916,0,0,0-3.715,1.693l-5.14,4.455Zm19.194,4.3a4.2,4.2,0,0,0-1.168-3.527,4.4,4.4,0,0,0-3.432-1.689,6.1,6.1,0,0,0-3.932,1.721l-5.691,4.931L61.2,128.66l5.782-5.011A6.15,6.15,0,0,0,69.254,120.11Z" fill="#fff"/>
        <path id="Path_1472" data-name="Path 1472" d="M67.5,74.824l29.43,33.961-7.848,6.8L59.65,81.625Z" fill="#fff"/>
        <path id="Path_1473" data-name="Path 1473" d="M106.433,98.379a15.566,15.566,0,0,1-8.7-.493A19.674,19.674,0,0,1,85.681,83.937a15.665,15.665,0,0,1,.776-8.749,20.072,20.072,0,0,1,13.584-11.772,15.685,15.685,0,0,1,8.771.476,18.008,18.008,0,0,1,7.769,5.441,17.816,17.816,0,0,1,4.258,8.485,15.806,15.806,0,0,1-.822,8.789,19.053,19.053,0,0,1-5.423,7.512A18.7,18.7,0,0,1,106.433,98.379Zm4.675-16.025a8.681,8.681,0,0,0-2.513-6.1,8.851,8.851,0,0,0-5.633-3.395,6.9,6.9,0,0,0-7.615,6.56q-.1,2.941,2.6,6.062a9.018,9.018,0,0,0,5.587,3.435,6.383,6.383,0,0,0,5.172-1.59A6.76,6.76,0,0,0,111.108,82.354Z" fill="#fff"/>
        <path id="Path_1474" data-name="Path 1474" d="M124.778,41.1a10.741,10.741,0,0,1,5.649.167l-3.142-3.626,7.848-6.8L157.285,56.4a19.038,19.038,0,0,1,4.148,7.616,14.121,14.121,0,0,1-.311,8.264,18.275,18.275,0,0,1-5.665,7.883q-5.691,4.932-11.55,5.309A13.411,13.411,0,0,1,133.563,81.7l7.757-6.722a4.912,4.912,0,0,0,3.752.806,8.41,8.41,0,0,0,4.132-2.094,7.065,7.065,0,0,0,2.664-4.76q.232-2.652-2.431-5.727l-3.142-3.626a11.529,11.529,0,0,1-.641,5.659,12.665,12.665,0,0,1-3.754,5.221,13.879,13.879,0,0,1-7.148,3.342,14.9,14.9,0,0,1-8.079-1.116A22.362,22.362,0,0,1,114.643,58.8a14.739,14.739,0,0,1,.084-8.11,14.036,14.036,0,0,1,4.345-6.577A13.033,13.033,0,0,1,124.778,41.1Zm7.956,6.122a7.3,7.3,0,0,0-7.959,6.859,8.383,8.383,0,0,0,2.368,6.024,8.6,8.6,0,0,0,5.665,3.246,7.23,7.23,0,0,0,7.96-6.858,8.492,8.492,0,0,0-2.388-6.048A8.5,8.5,0,0,0,132.734,47.219Z" fill="#fff"/>
      </g>
      <path id="Path_1475" data-name="Path 1475" d="M71.109,17.348A29.812,29.812,0,0,0,60.584,6.825a11.592,11.592,0,0,0-5.622-1.671,1.226,1.226,0,0,0-1,.4A10.9,10.9,0,0,0,50.848,15.2a.663.663,0,0,1-.189.665q-3.366,3.348-6.712,6.714a.437.437,0,0,1-.633.092,9.017,9.017,0,0,0-4.736-1.117,10.442,10.442,0,0,0-4.773,1.022,7.422,7.422,0,0,0-3.242,2.558c-.942,1.506-.627,3.086-.022,4.618a26.519,26.519,0,0,0,4.641,6.981c.275.333.312.514.044.875Q30.24,44.369,25.292,51.15a4.157,4.157,0,0,0-.4.627.883.883,0,0,0,.231,1.08.874.874,0,0,0,1.033.207,3.992,3.992,0,0,0,.629-.4q6.774-4.959,13.537-9.934c.349-.258.538-.273.872.032a28.892,28.892,0,0,0,3.174,2.523,14.588,14.588,0,0,0,5.229,2.558,4.066,4.066,0,0,0,4.179-1.284,11.235,11.235,0,0,0,1.587-11.821.63.63,0,0,1,.144-.887q3.269-3.226,6.5-6.488a.764.764,0,0,1,.75-.284,10.835,10.835,0,0,0,9.643-3.109,1.171,1.171,0,0,0,.393-.939A11.5,11.5,0,0,0,71.109,17.348ZM38.929,41.285q-3.8,2.771-7.591,5.562c-.149.108-.292.25-.519.143,1.939-2.643,3.881-5.278,5.8-7.928.235-.325.36-.349.637-.049.549.6,1.128,1.164,1.721,1.717C39.243,40.976,39.2,41.09,38.929,41.285Zm13.2,4.1a2.289,2.289,0,0,1-2.34.443,11.648,11.648,0,0,1-4.2-2.141A49.18,49.18,0,0,1,33.541,31.216a7.521,7.521,0,0,1-1.521-3.969,1.914,1.914,0,0,1,.713-1.586,8.558,8.558,0,0,1,5.556-2.084,7.843,7.843,0,0,1,3.765.7c.245.116.407.233.356.557a5.153,5.153,0,0,0,.91,3.553A18.7,18.7,0,0,0,49.691,34.7a5.079,5.079,0,0,0,3.385.845c.294-.043.4.087.514.316A9.061,9.061,0,0,1,52.126,45.382Zm7.13-18.117c-1.921,1.933-3.87,3.839-5.765,5.8a1.483,1.483,0,0,1-1.688.4,8.368,8.368,0,0,1-2.87-1.72,15.923,15.923,0,0,1-4.169-4.91,4.594,4.594,0,0,1-.329-.873,1.38,1.38,0,0,1,.409-1.46c2.127-2.081,4.217-4.2,6.324-6.3.126-.126.219-.311.414-.324a16.971,16.971,0,0,0,7.488,8.018c.32.176.888.2.922.513C60.028,26.75,59.53,26.99,59.256,27.265Zm6.755-2.123a8.772,8.772,0,0,1-6.021-1.07,14.342,14.342,0,0,1-6.4-6.7,8.945,8.945,0,0,1,.368-8.558c.05-.085.109-.163.2-.3A25.485,25.485,0,0,0,69.393,23.774,8.539,8.539,0,0,1,66.011,25.142Zm4.3-3.244a14.355,14.355,0,0,1-3.16-1.306A23.1,23.1,0,0,1,56.32,8.5c-.145-.363-.451-.855-.245-1.1.241-.289.729.046,1.09.153a14.746,14.746,0,0,1,5.1,2.817,29.436,29.436,0,0,1,6.782,7.425,12.385,12.385,0,0,1,1.556,3.72C70.654,21.753,70.723,22,70.314,21.9Z" fill="#fff"/>
      <path id="Path_1476" data-name="Path 1476" d="M71.925,23.153H157.8a24,24,0,0,1,24,24v99a24,24,0,0,1-24,24H31.8a24,24,0,0,1-24-24v-99a24,24,0,0,1,24-24" fill="none" stroke="#fff" stroke-width="2"/>
      <path id="Path_1477" data-name="Path 1477" d="M70.187,25.154h86.88c15.87,0,28.734,9.2,28.734,20.551" fill="none" stroke="#fff" stroke-width="2"/>
      <path id="Path_1478" data-name="Path 1478" d="M185.8,80.064V153.6c0,11.35-12.864,20.551-28.734,20.551H38.537c-15.87,0-28.735-9.2-28.735-20.551V45.705c0-9.438,8.9-17.39,21.017-19.8" fill="none" stroke="#fff" stroke-width="2"/>
    </g>
  </g>
</svg>
