<svg xmlns="http://www.w3.org/2000/svg" width="210" height="210" viewBox="0 0 210 210">
  <g id="Cat_question" transform="translate(105 105)">
    <g id="Group_350" data-name="Group 350" transform="translate(-105 -105)">
      <rect id="Rectangle_434" data-name="Rectangle 434" width="210" height="210" fill="#fff" opacity="0"/>
      <g id="Group_348" data-name="Group 348" transform="translate(4.008 53.873)">
        <g id="Group_346" data-name="Group 346" transform="translate(29.389 59.696)">
          <path id="Path_1382" data-name="Path 1382" d="M153.185,230.248c.514-.34.306-.974.556-1.419C153.08,229.115,153.17,229.7,153.185,230.248Z" transform="translate(-57.904 -150.182)" fill="#f4c8c1"/>
          <path id="Path_1383" data-name="Path 1383" d="M53.328,139.024c.41-2.274-1.872-2.872-3.568-3.478-2.685-.953-5.293.362-7.943.459-.459.049-.911.09-1.363.139a.875.875,0,0,0-.7.606c.265.459.529.911.793,1.363,1.641,4.013,5.223,3.241,8.423,3.436C51.019,141.667,52.973,141.006,53.328,139.024Z" transform="translate(-39.758 -135.202)" fill="#f4c8c1"/>
          <path id="Path_1384" data-name="Path 1384" d="M50.288,219.472c-.083-.013-.16-.02-.236-.034-.195-.028-.362-.265-.543-.4-1.28,1.578-1.064,3.179-.042,4.778.25,0,.515.008.772.014,1.266.028,2.5-.028,2.72-1.836C53.209,219.952,51.749,219.681,50.288,219.472Z" transform="translate(-41.176 -148.615)" fill="#f4c8c1"/>
          <path id="Path_1385" data-name="Path 1385" d="M152.612,219.68c-1.112,1.147-3.992.327-3.533,3.247.354,2.3,2.316,1.169,3.484,1.719C153.53,223,153.982,221.349,152.612,219.68Z" transform="translate(-57.241 -148.718)" fill="#f4c8c1"/>
          <path id="Path_1386" data-name="Path 1386" d="M139.264,142.418c.23.007.459,0,1.323,0a11.39,11.39,0,0,0,4.438-.724,2.1,2.1,0,0,0,1.591-2.329,3.013,3.013,0,0,0-1.835-2.334c-1.263-.685-1.584,1.042-2.653,1.081-1.858.068.723-1.939-1.028-1.981-2.281-.054-4.334.316-5.961,2.063-.661.71-1.187,1.492-.708,2.461C135.465,142.748,137.459,142.36,139.264,142.418Z" transform="translate(-54.876 -135.35)" fill="#f4c8c1"/>
          <path id="Path_1387" data-name="Path 1387" d="M140.188,220.517c-1.857-.055-2.476-.689-3-2.434-.932-3.081-2.8-3.346-5.1-1.009-2.608,2.65-3.373,6.051-3.255,9.536.091,2.873,2.2,4.124,5.189,4.271,3.2-.995,6.913-1.412,8.993-4.882C144.764,223.07,143.589,220.628,140.188,220.517Z" transform="translate(-54.009 -148.052)" fill="#f4c8c1"/>
          <path id="Path_1388" data-name="Path 1388" d="M148.324,211.315v-.055H148.3a5.407,5.407,0,0,1-1.273-.195c-1.655-.66-2.7-.174-2.927,1.607-.181,1.356.153,2.608,1.78,2.782,1.767.187,2.434-.869,2.407-2.518C148.275,212.393,148.31,211.857,148.324,211.315Z" transform="translate(-56.445 -147.295)" fill="#f4c8c1"/>
          <path id="Path_1389" data-name="Path 1389" d="M149.145,211.324l-.007-.007v.028a.043.043,0,0,0,.028.007Z" transform="translate(-57.259 -147.38)" fill="#f4c8c1"/>
          <path id="Path_1390" data-name="Path 1390" d="M134.694,210.824c1.162-.091,1.955-.626,1.885-1.885-.063-1.078-.827-1.544-1.843-1.572-1.162-.028-2.073.452-2.08,1.69S133.511,210.8,134.694,210.824Z" transform="translate(-54.622 -146.748)" fill="#f4c8c1"/>
          <path id="Path_1391" data-name="Path 1391" d="M68.467,216.893c-2.247-2.963-4.48-2.678-5.746.876-.556,1.551-1.2,2.059-2.67,1.913-1.683-.166-3.074.411-3.582,2.059a4.112,4.112,0,0,0,1.133,4.431,13.776,13.776,0,0,0,8.18,3.923c4.082,0,5.925-1.628,5.675-4.855A15.692,15.692,0,0,0,68.467,216.893Z" transform="translate(-42.395 -147.949)" fill="#f4c8c1"/>
          <path id="Path_1392" data-name="Path 1392" d="M57.984,212.894a1.864,1.864,0,0,0-2.017-2.239c-1.426-.014-2.066.793-2.122,2.177-.049,1.252.39,2.017,1.322,1.982C56.926,214.821,57.893,214.355,57.984,212.894Z" transform="translate(-42.011 -147.274)" fill="#f4c8c1"/>
          <path id="Path_1393" data-name="Path 1393" d="M67.109,210.552c1.287.076,1.976-.869,2.4-1.961.014-1.321-.932-1.725-1.878-1.913l-.111-.021a1.506,1.506,0,0,0-1.7.675,2.421,2.421,0,0,0-.32,1.051C65.405,209.529,65.878,210.482,67.109,210.552Z" transform="translate(-43.875 -146.629)" fill="#f4c8c1"/>
        </g>
        <g id="Group_347" data-name="Group 347">
          <path id="Path_1394" data-name="Path 1394" d="M156.041,132.161a56.509,56.509,0,0,0-16.109-4.034c-.925-.091-2.26.369-2.33-1.3-.083-1.955,1.467-1.433,2.462-1.5a48.6,48.6,0,0,1,15.524,1.176c.869.229,1.878.772,2.873-.125-1.175-1.419-2.8-1.28-4.2-1.586a51.348,51.348,0,0,0-14.523-.863c-1.391.1-2.532.327-3.067-1.69-.564-2.149.827-2.358,2.017-2.886a53.522,53.522,0,0,1,17.757-4.472c.744-.063,1.961.543,2.176-1.266-4.861-.313-9.445.793-13.966,2.121-2.873.842-6.148,3.492-8.3,2.72-2.031-.738-2.824-4.89-4.173-7.533a5.9,5.9,0,0,0-.9-1.474c-1.586-1.641-1.308-3.38-.78-5.418a64.188,64.188,0,0,0,.1-30.951c-1.76-7.616-6.114-9.39-13.138-5.759-7.5,3.881-13.6,9.591-19.648,15.336a4.307,4.307,0,0,1-4.57,1.294,47.028,47.028,0,0,0-21.686-.271,4.686,4.686,0,0,1-5.078-1.572c-5.766-6.023-11.65-11.956-19.029-16.08-6.67-3.721-11.038-1.982-13.1,5.369-2.538,9.035-3.478,18.292-1.69,27.5,1.064,5.494,1.7,10.551-1.871,15.329a4.871,4.871,0,0,0-.814,2.268c-.375,3.039-1.85,2.831-4.1,1.746a46.4,46.4,0,0,0-13.994-3.9c-2.253-.3-4.6-.876-7.1.055,1.161,1.217,2.406.786,3.47.869a55.156,55.156,0,0,1,18.4,4.73c1.225.549,2.233,1.043,1.836,2.768-.41,1.788-1.648,1.294-2.719,1.217a53.656,53.656,0,0,0-17.59,1.37c-.988.258-2.344.07-2.7,1.5.723.765,1.391.307,2.017.118A45.966,45.966,0,0,1,24,125.359c1.383.1,3.9-.828,3.832,1.516-.055,2.017-2.441.995-3.763,1.175-6.628.911-13.013,2.483-19.14,5.94,1.641,1.162,2.545.049,3.484-.348a59.348,59.348,0,0,1,16.429-4.187c2.176-.25,3.226.084,3.546,2.643,1.384,11.086,7.4,19.106,17.854,22.723,5.648,1.955,6.948,5.1,6.628,10.266-.223,3.6-4.368,9.6-7.873,10.732-5.933,1.906-8.117,7.415-5.286,13.034.494.981,2.01,1.669,1,3.3-2.135,3.45-1.092,6.635,1.161,9.62q.992,1.085,1.989,2.17c.877.73,1.753,1.467,2.622,2.2a14.424,14.424,0,0,0,5.773,3.29c4.416,2.26,9.64,4.618,13.785,1.822,4.444-3,9.146-4.848,13.917-6.837.306-.132.5-.591.793-.654,2.295-.487,4.924-1.5,6.691.528a8.891,8.891,0,0,0,6.552,3.352c4.014.153,7.8-.139,10.746,3.721,1.4,1.815,4.472,1.565,6.927,1.224a33.419,33.419,0,0,0,9.508-3.068c3.081-1.439,5.363-3.971,8.27-5.626-.014-.549-.1-1.134.556-1.419,1.711-2.031,2.963-4.4,2.275-7a12.434,12.434,0,0,1,.257-6.642c1.718-6.733-1.947-11.692-8.868-12.3a4.921,4.921,0,0,1-2.337-.417c-4.354-2.622-7.324-12.387-5.078-16.782.39-.752,1.12-.786,1.725-.981,13.006-4.2,19.12-13.5,19.69-26.778.09-2.1.987-2.191,2.58-1.968a61.273,61.273,0,0,1,10.2,2.038c2.685.862,5.335,1.843,8.235,2.851C158.357,132.613,157.014,132.565,156.041,132.161ZM53.478,171.507c.264,1.94,1.029,3.749.806,5.745C49.43,175.172,49.43,175.172,53.478,171.507Zm-11,7.373c3.665-3.186,8.36-2.56,12.345,1.773a10.084,10.084,0,0,1-6.287,2.657c-3.721.236-5.606,2.88-6.072,6.628C38.949,185.64,39,181.9,42.475,178.88Zm21.192,31.479c-3.825.452-7.254-.939-10.67-2.344-.139-.084-.285-.167-.424-.25h-.007c-1.6-.926-3.206-1.851-4.8-2.775v-.007l-.438-.25c-1.676-1.857-4.006-3.151-4.875-5.7-1.022-1.6-1.238-3.2.042-4.779,1.237-1.14,2.329-2.087,2.17-4.229-.229-3.046,2.358-4.764,5.752-4.069,1.7.355,2.768.6,3.943-1.279a3.761,3.761,0,0,1,6.615.125,99.624,99.624,0,0,1,8.555,16.936C71.1,205.929,68.209,209.824,63.668,210.359Zm33.635-4.34c-1.237-.9.814-1.871-.194-2.81-1.872-.028-.863,3.436-3.429,2.831-3.443-.821.612-2.859-.78-3.944-.208-.007-.466-.1-.633-.02-1.085.563-.633,2.942-2.281,2.475-1.475-.417-.869-2.212-.96-3.408-.619-8.214.1-16.435-.07-24.65-.02-1.057.55-2.691-1.1-2.823-2-.167-1.488,1.648-1.537,2.8a138.63,138.63,0,0,0,.619,20.8c.258,2.42-.16,3.387-2.969,3.387-3.04,0-2.26-1.606-2.184-3.283.333-7.275,1.287-14.543.591-21.846-.105-1.113.639-3.074-1.252-3.04-2.218.035-1.217,2.129-1.224,3.29-.076,7.407-.008,14.814-.008,22.229a12.725,12.725,0,0,1-.208,2.413c-.208,1.071.3,2.706-1.12,2.99-1.308.265-.995-1.572-1.753-2.212-.229-.195-.473-.375-.667-.535-.822.494-.459.995-.334,1.551.188.807,1.635,1.843-.285,2.386-1.273.362-1.836-.076-2.643-1.307-3.276-5.043-5.432-10.635-8.277-15.886-1.419-2.622-2.49-5.571-5.814-6.5-1.009-.278-.953-1.182-1.134-1.947a91.864,91.864,0,0,1-2.5-17.84c-.1-2.386.564-2.616,2.754-2.031,11.156,2.99,22.591,3.6,34.08,3.457a6.543,6.543,0,0,0,1.329-.306,28.135,28.135,0,0,0,8.437-.487c.236-.062.473-.125.7-.2a38.051,38.051,0,0,0,8.889-1.412c1.7-.424,2.26.021,2.156,1.794-.522,8.528-.988,16.923-5.3,24.768-3.088,5.613-6.781,11.072-7.908,17.617C100,206.046,98.437,205.7,97.3,206.019Zm32.182-6.26c-4.924,7.213-11.977,10.746-20.476,11.1-5.258.216-8.361-4.521-6.246-9.327,2.372-5.384,5.127-10.614,8-15.754,1.739-3.116,5.148-3.317,7.011-.465.987,1.523,1.767,1.606,3.325,1.286,1.718-.348,3.707-.848,4.945,1.168l.007.008a2.1,2.1,0,0,1,1.308,2.5c-.445,2.143.813,3.325,2.176,4.521C130.9,196.463,130.452,198.111,129.485,199.759ZM128.136,179.3c2.99,2.107,3.575,5.828,1.593,11.427-.9-5.008-3.645-7.143-8.486-7.129-2.058.007-3.491-2.365-5.884-2.72C119.887,177.468,124.769,176.939,128.136,179.3Zm-8.875-2.546c-1.746,1.05-3.534,1.461-5.356,3.4.515-2.859.863-4.8,1.3-7.2C116.7,174.358,117.884,175.464,119.261,176.758Zm11.226-47.191c5.431-.063,5.48-.063,4.6,5.2-1.767,10.642-7.046,18.285-17.937,21.408-4.89,1.405-9.842,2.393-14.829,3.325q-5.082.48-10.176.974c-.633.055-1.259.118-1.892.181-14.843.125-29.309-1.767-43.088-7.693C39,149.445,33.3,143.922,31.312,135.006c-1.154-5.154-1.21-5.14,3.38-6.058.118-.842-.549-.786-1.057-.988-1.043-.41-3.242.7-2.964-1.092.209-1.377,2.115.195,3.276-.021.328-.055.675-.069,1.009-.1-.265-.452-.528-.9-.793-1.363-1.252-.306-2.81.084-3.547-1.4a1.63,1.63,0,0,1,.195-1.245c1.774-.216,2.733,1.266,4.048,2.038.452-.049.9-.091,1.363-.139-.021-1.008-.835-1.446-1.53-1.7-4.256-1.572-3.567-4.334-2.232-7.651,3.735-9.244,10.071-16.234,18.181-21.791.667-.459,1.362-.876,2.03-1.328.557-.375,1.44-.738.995-1.537-.647-1.155-1.419-.153-1.989.208a59.928,59.928,0,0,0-14.335,12.506c-.57.689-1.147,1.363-2.08,2.469-2.628-12.234-2.323-23.822,1.488-35.214,1.433-4.291,3.861-5.091,8.2-3.081,8.492,3.923,14.836,10.517,21.283,17.11-1.669,1.593-4.312,1.321-5.543,3.93,15.35-5.662,30.506-6.183,45.46,1.21-.647-1.857-2.239-2.149-3.568-2.768s-2.72-1.147-4.444-1.864c6.788-6.566,13.507-12.867,22.229-16.463,4.264-1.767,6.747-.633,7.95,3.728a65.122,65.122,0,0,1,.4,32.982c-3.373-3.359-6.287-6.74-9.786-9.494-.73-.57-1.446-1.155-2.212-1.677-.535-.361-1.182-1.029-1.746-.153-.369.584.153,1.05.626,1.425,1.085.863,2.184,1.711,3.248,2.6a48.614,48.614,0,0,1,14.39,19.266c.8,1.975.689,3.123-1.411,4.006a19.285,19.285,0,0,0-3.478,2.268c-.445.312-1.148.681-.7,1.342.6.862,1.189-.16,1.8-.181,1.113-.779,2.191-1.606,3.339-2.33.688-.438,1.557-1.383,2.066.237.375,1.2.139,1.955-1.3,2.087-1.12.1-2.225.382-3.345.585-.383.528-1.551.438-1.363,1.3.229,1.037,1.064.452,1.676.312,1.127-.264,2.239-.542,3.367-.792.709-.16,1.44-.237,1.593.723.16,1.016-.612.987-1.315,1.092-1.7.271-3.617-.48-5.174.806C129.353,129.762,129.972,129.574,130.487,129.567Z" transform="translate(-4.771 -64.135)" fill="#333"/>
          <path id="Path_1395" data-name="Path 1395" d="M67.087,127.16c-3.429.772-5.7,5.091-4.834,9.216.869,4.16,3.825,6.921,6.927,6.413a5.576,5.576,0,0,0,3.749-2.295,8.758,8.758,0,0,0,1.753-5.53,23.643,23.643,0,0,0-.4-2.726C73.354,128.746,70.1,126.479,67.087,127.16Z" transform="translate(-13.939 -74.199)" fill="#333"/>
          <path id="Path_1396" data-name="Path 1396" d="M122.693,126.86c-3.783.008-6.461,3.29-6.469,7.922,0,4.431,2.706,7.818,6.219,7.783,3.436-.035,6.218-3.666,6.294-8.229C128.8,130.123,126.164,126.854,122.693,126.86Z" transform="translate(-22.603 -74.171)" fill="#333"/>
          <path id="Path_1397" data-name="Path 1397" d="M139.131,91.461c.111.543,1.669-.132,2.288-.876a5.782,5.782,0,0,0,1.342-4.2c-.341-2.254-.341-4.869-2.5-6.141-2.072-1.231-3.533,1.1-5.231,1.871a11.177,11.177,0,0,0-2.58,2.26,3.2,3.2,0,0,0-.835,3.213C132.6,91.566,138.185,86.871,139.131,91.461Z" transform="translate(-25.047 -66.656)" fill="#333"/>
          <path id="Path_1398" data-name="Path 1398" d="M52.894,79.026c-3.8.139-2.685,3.651-3.693,5.7a4.633,4.633,0,0,0-.244,1.064,4.95,4.95,0,0,0,2.2,4.061,1.681,1.681,0,0,0,2.441-.577c1.05-1.857,2.177-1.586,3.916-.876,1.961.806,3.095-.549,3-2.5C60.42,83.616,55.231,78.936,52.894,79.026Z" transform="translate(-11.841 -66.517)" fill="#333"/>
          <path id="Path_1399" data-name="Path 1399" d="M44.816,92.113c-1.725-.278-.452,2.156-1.05,3.255.57,1.482-.932,4.02,1.725,4.173a3.216,3.216,0,0,0,3.248-3.359C48.809,93.5,46.374,92.363,44.816,92.113Z" transform="translate(-11.01 -68.608)" fill="#333"/>
          <path id="Path_1400" data-name="Path 1400" d="M127.429,118.186c.765.251,1.217-.34,1.37-1.112-.543-1.378-1.773-1.649-3.018-1.767-.863-.084-1.774.257-1.447,1.294C124.779,118,126.331,117.818,127.429,118.186Z" transform="translate(-23.89 -72.32)" fill="#333"/>
          <path id="Path_1401" data-name="Path 1401" d="M65.062,119.691c.883-.647,2.74.125,2.921-1.662.112-1.112-.974-1.12-1.76-1.036-1.1.111-2.462.062-2.636,1.586C63.5,119.364,64.171,119.74,65.062,119.691Z" transform="translate(-14.18 -72.587)" fill="#333"/>
          <path id="Path_1402" data-name="Path 1402" d="M148.938,100.49c1.62,0,1.2-1.308,1.245-2.233.021-.633.091-1.425-.974-1.453a2.791,2.791,0,0,0-1.53,2.4A1.17,1.17,0,0,0,148.938,100.49Z" transform="translate(-27.635 -69.362)" fill="#333"/>
          <path id="Path_1403" data-name="Path 1403" d="M99.411,138.377c-.911-.737-1.67-.278-2.525.16-.549.278-.744,1.8-1.683.751-1.085-1.217-2.149-2.441-3.624-.848a2.724,2.724,0,0,0,.549,4.034c3.979,2.8,3.206,6.921,3.568,10.816.25,2.636-.3,5.425,1.064,8.277a2.518,2.518,0,0,0,.9-2.4c-.028-6.19-3.123-12.734,2.226-18.32A1.741,1.741,0,0,0,99.411,138.377Z" transform="translate(-18.553 -75.902)" fill="#333"/>
        </g>
      </g>
      <g id="Group_349" data-name="Group 349" transform="translate(137.821 6.161)">
        <path id="Path_1404" data-name="Path 1404" d="M167.42,12.177c.281-.224.582-.429.843-.677A14.5,14.5,0,0,1,190.6,13.942c.178.264.364.522.591.845,6.295-5.08,13.09-6.166,20.044-1.814,6.066,3.8,8.123,9.69,7.2,16.771a14.951,14.951,0,0,1,7.687,5.386,20.108,20.108,0,0,1,1.3,2.126c.36.661.748,1.437-.191,1.913-.921.467-1.3-.251-1.658-.955a12.159,12.159,0,0,0-7.6-6.351l-2.53,4.526a22.207,22.207,0,0,1,3.762,2.15,6.877,6.877,0,0,1,1.106,9.183,7.078,7.078,0,0,1-8.849,2.457c-4.1-1.856-6.855-1.385-10.1,1.729a2.706,2.706,0,0,0-.332,3.952,2.575,2.575,0,0,0,3.842,0c1.5-1.569,2.869-1.558,4.812-.7,7.9,3.488,16.87-2.354,17.177-11.044.03-.852-.362-2.156,1.093-2.062,1.346.087,1.084,1.383.948,2.213-.319,1.946-.824,3.862-1.254,5.791l-2.123,3.26-1.145.995c-4.661,4.046-9.882,5.031-15.624,2.726a2.045,2.045,0,0,0-2.528.41,4.682,4.682,0,0,1-6.82-.27,4.766,4.766,0,0,1,.469-6.73c3.85-3.741,7.4-4.352,12.4-2.176a4.885,4.885,0,0,0,5.455-.763A4.7,4.7,0,0,0,219.3,42.49a4.764,4.764,0,0,0-3.8-3.643,4.076,4.076,0,0,0-3.528.729,15.281,15.281,0,0,1-11.677,2.913,2.315,2.315,0,0,0-2.787,1.193,5.085,5.085,0,0,1-6.766,1.978,5.192,5.192,0,0,1-2.11-7.365c2.886-5.125,6.924-7.065,12.731-6.118a5.79,5.79,0,0,0,6.609-3.816,5.708,5.708,0,0,0-2.588-6.819,5.592,5.592,0,0,0-7.362,1.4,5.9,5.9,0,0,1-5.547,2.769,15.383,15.383,0,0,1-4.622,7.173c-.6.507-1.236,1.032-1.909.259s-.062-1.332.537-1.835A12.437,12.437,0,0,0,190.16,26a1.327,1.327,0,0,0-.356-1.682,4.984,4.984,0,0,1-.685-6.793,1.6,1.6,0,0,0,.032-1.986,12.437,12.437,0,0,0-22.82,3.508c-.442,1.926.273,3.381,1.844,3.757,1.6.382,2.8-.53,3.317-2.5a7.109,7.109,0,1,1,13.38,4.557A6.948,6.948,0,0,1,179.96,28.8c-4.244,1.055-6.343,3.54-6.681,7.906a2.639,2.639,0,0,0,5.21.833c.139-.584.195-1.189.355-1.767.339-1.226,2.686-2.458,3.844-1.97a1.2,1.2,0,0,1,.642.916c-.045.366-.445.957-.732.981-1.593.135-1.877,1.143-2.145,2.484a4.586,4.586,0,0,1-5.337,3.547,4.735,4.735,0,0,1-3.947-4.959c.276-5.23,3.149-8.716,8.231-9.986a5.025,5.025,0,1,0-5.886-5.956c-.83,3.165-3.279,4.77-6.041,3.956a4.683,4.683,0,0,1-3.321-5.389c.227-1.262.656-2.487.994-3.729Zm23.774,26.1a16.041,16.041,0,0,0-.9,1.4,3.082,3.082,0,0,0,5.064,3.423,5.265,5.265,0,0,0,.711-1.024,3.173,3.173,0,0,1,3.9-1.745,14.057,14.057,0,1,0-8.821-22.152c-1.323,1.743-1.215,3.651.271,4.8s3.339.763,4.683-1A7.851,7.851,0,1,1,200.826,34.2C196.566,33.421,193.512,34.7,191.194,38.275Z" transform="translate(-164.072 -7.335)"/>
        <path id="Path_1405" data-name="Path 1405" d="M186.713,63.14a5.218,5.218,0,1,1,7.214-1.506A5.248,5.248,0,0,1,186.713,63.14Zm5.431-2.646a3.088,3.088,0,1,0-4.262.877A3.076,3.076,0,0,0,192.144,60.494Z" transform="translate(-167.321 -14.733)"/>
        <path id="Path_1406" data-name="Path 1406" d="M177.618,50.734a4.751,4.751,0,1,1-5.143,7.989,4.822,4.822,0,0,1-1.423-6.5A4.736,4.736,0,0,1,177.618,50.734Zm-.288,5.439a2.732,2.732,0,0,0-.779-3.666,2.655,2.655,0,1,0,.779,3.666Z" transform="translate(-165.076 -14.16)"/>
        <path id="Path_1407" data-name="Path 1407" d="M202.329,66.82a4.683,4.683,0,0,1,1.346,6.578,4.736,4.736,0,1,1-1.346-6.578Zm-3.988,6.206A2.668,2.668,0,0,0,202,72.191a2.707,2.707,0,0,0-.848-3.669,2.652,2.652,0,0,0-3.646.87A2.59,2.59,0,0,0,198.341,73.026Z" transform="translate(-169.02 -16.728)"/>
      </g>
    </g>
  </g>
</svg>
