<svg xmlns="http://www.w3.org/2000/svg" xmlns:xlink="http://www.w3.org/1999/xlink" width="88" height="88" viewBox="0 0 88 88">
  <defs>
    <linearGradient id="linear-gradient" y1="0.5" x2="1" y2="0.5" gradientUnits="objectBoundingBox">
      <stop offset="0" stop-color="#58d3cc"/>
      <stop offset="1" stop-color="#4ab6ff"/>
    </linearGradient>
    <linearGradient id="linear-gradient-6" x1="0" y1="0.5" x2="1" y2="0.5" xlink:href="#linear-gradient"/>
  </defs>
  <g id="CPU_icon" transform="translate(44 44)">
    <g id="Group_342" data-name="Group 342" transform="translate(-44 -44)">
      <rect id="Rectangle_431" data-name="Rectangle 431" width="88" height="88" fill="#fff" opacity="0"/>
      <g id="Group_341" data-name="Group 341" transform="translate(11 10.906)">
        <path id="Path_1361" data-name="Path 1361" d="M28.121,75.111a2.023,2.023,0,0,1-1.088-2.057c.044-1.982.012-3.965.012-5.947v-1.03a7.849,7.849,0,0,1-9.013-9.026H14.416c-1.206,0-2.413.012-3.619,0C9.66,57.031,8.974,56.43,9,55.513c.026-.884.7-1.448,1.787-1.453,2.352-.012,4.7,0,7.135,0V48.034H13.538c-.862,0-1.723,0-2.585,0C9.729,48.022,9.022,47.484,9,46.556c-.022-.951.71-1.539,1.976-1.546,1.981-.012,3.964,0,5.945,0h1.011V39.058c-.3-.013-.606-.039-.911-.039-1.982,0-3.964.006-5.945-.01a3.04,3.04,0,0,1-1.182-.17,1.386,1.386,0,0,1-.856-1.615A1.5,1.5,0,0,1,10.682,36c2.1-.022,4.192-.007,6.29-.009h.978V29.967H16.231c-1.838,0-3.676.013-5.515,0a1.5,1.5,0,1,1-.02-2.982c2.1-.021,4.193-.007,6.291-.007h1.03a8.337,8.337,0,0,1,2.2-6.821c1.864-1.869,4.193-2.369,6.831-2.213V16.154c0-1.81-.01-3.62.006-5.429.01-1.139.61-1.824,1.528-1.8.882.023,1.45.694,1.457,1.783.012,2.069,0,4.137,0,6.205v.969H36.06V13.3c0-.862-.012-1.723,0-2.585.021-1.089.583-1.764,1.461-1.792.9-.029,1.538.666,1.551,1.791.027,2.1.01,4.195.01,6.292,0,.257,0,.513,0,.846h5.945c.015-.287.042-.59.042-.893,0-1.925,0-3.85,0-5.775a6.275,6.275,0,0,1,.04-.858,1.518,1.518,0,0,1,1.481-1.4,1.484,1.484,0,0,1,1.479,1.495c.05,1.349.022,2.7.024,4.05,0,1.115,0,2.228,0,3.4h6.019v-.918c0-2.068-.006-4.137,0-6.205.006-1.138.6-1.833,1.506-1.824s1.475.692,1.481,1.848c.012,2.04,0,4.08,0,6.12v1.055a8.3,8.3,0,0,1,6.8,2.179c1.872,1.859,2.386,4.185,2.226,6.848h1.077c1.982,0,3.964.016,5.945-.01A2.152,2.152,0,0,1,75,27.7v1.552a2.2,2.2,0,0,1-1.838.722c-1.778-.029-3.557-.01-5.335-.01H66.216v6.022c2.316,0,4.577-.05,6.833.031A7.318,7.318,0,0,1,75,36.667v1.551a1.959,1.959,0,0,1-1.8.8c-2.036-.009-4.071,0-6.107,0-.3,0-.6.029-.887.045v5.942h.974c2.007,0,4.014,0,6.021,0a1.958,1.958,0,0,1,1.8.8v1.552A7.441,7.441,0,0,1,73.046,48c-1.978.087-3.961.031-5.944.033-.281,0-.561.023-.955.04,0,.5.029.95-.006,1.4a1.5,1.5,0,0,1-1.522,1.54,1.529,1.529,0,0,1-1.486-1.584c-.017-.258,0-.517,0-.776q0-11.29,0-22.579c0-3.329-1.778-5.113-5.1-5.114q-15.939,0-31.88,0c-3.329,0-5.115,1.778-5.115,5.1q0,15.944,0,31.888c0,3.332,1.776,5.12,5.091,5.121q15.941,0,31.88,0c3.334,0,5.119-1.776,5.124-5.088,0-.747-.021-1.495.006-2.24A1.523,1.523,0,0,1,64.8,54.065c2.9-.022,5.8-.042,8.7.024.5.011,1,.442,1.5.68v1.552a2.069,2.069,0,0,1-1.745.737c-1.865-.023-3.731-.007-5.6-.007H66.146c.156,2.655-.348,4.982-2.22,6.841a8.269,8.269,0,0,1-6.815,2.179v1.041c0,1.981-.031,3.962.013,5.942a2.016,2.016,0,0,1-1.084,2.057h-.862a1.984,1.984,0,0,1-1.067-2.064c.05-.684.01-1.375.009-2.063V66.165H48.1c0,2.3-.031,4.532.015,6.764a2.246,2.246,0,0,1-1.038,2.183h-.862A1.932,1.932,0,0,1,45.069,73.1c.022-1.805.006-3.612.006-5.418V66.161H39.086c0,2.356-.013,4.646.006,6.935a1.937,1.937,0,0,1-1.148,2.015h-.862a2.214,2.214,0,0,1-1.04-2.182c.05-1.374.013-2.751.013-4.126v-2.66H30.041v.885c0,2.007-.033,4.014.013,6.018a2.057,2.057,0,0,1-1.072,2.064Z" transform="translate(-9 -8.923)" fill="url(#linear-gradient)"/>
        <path id="Path_1362" data-name="Path 1362" d="M42.13,26.686c-.018.354-.043.607-.043.859,0,3.562.006,7.124-.011,10.686a1,1,0,0,0,.6,1.069,4.394,4.394,0,0,1,2.271,5.014,4.5,4.5,0,0,1-8.713.081,4.347,4.347,0,0,1,2.172-5.048,1.141,1.141,0,0,0,.66-1.219c-.015-4.05-.009-8.1-.006-12.151,0-1.861.425-2.284,2.278-2.286,1.638,0,3.274-.013,4.911,0a4.5,4.5,0,0,1,4.841,4.846q.022,10.17,0,20.339A4.51,4.51,0,0,1,46.2,53.766c-2.7.015-5.4,0-8.1,0a5.2,5.2,0,0,1-.6-.021,1.479,1.479,0,0,1,.045-2.957c.629-.042,1.264-.016,1.894-.016,2.24,0,4.481.006,6.721,0,1.371-.006,1.936-.567,1.937-1.943q.009-10.083,0-20.165c0-1.428-.555-1.967-1.993-1.974C44.816,26.682,43.527,26.686,42.13,26.686ZM40.6,41.77A1.474,1.474,0,0,0,39.1,43.224a1.493,1.493,0,0,0,1.453,1.5,1.512,1.512,0,0,0,1.5-1.462A1.494,1.494,0,0,0,40.6,41.77Z" transform="translate(-2.983 -5.642)" fill="url(#linear-gradient)"/>
        <path id="Path_1363" data-name="Path 1363" d="M32.779,50.774v-4.5c0-2.355-.015-4.712.011-7.067a1,1,0,0,0-.621-1.057A4.4,4.4,0,0,1,30.025,32.8a4.492,4.492,0,0,1,8.746,1.135,4.235,4.235,0,0,1-2.33,4.192,1.089,1.089,0,0,0-.645,1.138c.02,4.08.012,8.158.009,12.238,0,1.844-.431,2.266-2.3,2.267-1.608,0-3.217.009-4.824,0-3.059-.021-4.9-1.831-4.91-4.866q-.02-10.17,0-20.339a4.5,4.5,0,0,1,4.82-4.866c2.787-.021,5.572,0,8.359-.007a1.6,1.6,0,0,1,1.728,1c.4,1.05-.354,1.986-1.64,2-2.585.017-5.17,0-7.755,0-.23,0-.46,0-.689,0a1.636,1.636,0,0,0-1.833,1.877c-.013,1.723,0,3.447,0,5.171q0,7.454,0,14.91c0,1.617.5,2.123,2.1,2.128C30.121,50.776,31.381,50.774,32.779,50.774Zm2.982-16.565a1.5,1.5,0,0,0-1.481-1.475,1.512,1.512,0,0,0-1.475,1.49,1.492,1.492,0,0,0,1.489,1.467A1.474,1.474,0,0,0,35.762,34.209Z" transform="translate(-5.719 -5.642)" fill="url(#linear-gradient)"/>
        <path id="Path_1364" data-name="Path 1364" d="M24.283,22.7a1.485,1.485,0,1,1-1.506-1.463A1.506,1.506,0,0,1,24.283,22.7Z" transform="translate(-6.263 -6.186)" fill="url(#linear-gradient)"/>
        <path id="Path_1365" data-name="Path 1365" d="M49.852,24.209a1.485,1.485,0,1,1,1.506-1.463A1.5,1.5,0,0,1,49.852,24.209Z" transform="translate(-0.246 -6.186)" fill="url(#linear-gradient)"/>
        <path id="Path_1366" data-name="Path 1366" d="M22.821,51.291a1.485,1.485,0,1,1,1.462-1.507A1.507,1.507,0,0,1,22.821,51.291Z" transform="translate(-6.263 -0.168)" fill="url(#linear-gradient-6)"/>
        <path id="Path_1367" data-name="Path 1367" d="M51.358,49.827a1.485,1.485,0,1,1-1.463-1.506A1.507,1.507,0,0,1,51.358,49.827Z" transform="translate(-0.246 -0.168)" fill="url(#linear-gradient-6)"/>
      </g>
    </g>
  </g>
</svg>
