<svg xmlns="http://www.w3.org/2000/svg" width="48" height="48" viewBox="0 0 48 48">
  <g id="discord_icon_white" transform="translate(24 24)">
    <g id="Group_366" data-name="Group 366" transform="translate(-24 -24)">
      <rect id="Rectangle_445" data-name="Rectangle 445" width="48" height="48" fill="#fff" opacity="0"/>
      <path id="Icon" d="M13.931,31.425c7.83,3.055,14.492,3.651,22.042-1.1A9.9,9.9,0,0,1,30.5,33.749c.83,1.134,1.964,2.434,1.964,2.434a13.023,13.023,0,0,0,7.108-2.1,5.392,5.392,0,0,0,2.406-5.006,36.961,36.961,0,0,0-2.379-9.9,11.608,11.608,0,0,0-9.763-7.44c-.387-.028-.664-.028-.829-.028l-.443.443a19.635,19.635,0,0,1,7.634,3.761,27.888,27.888,0,0,0-24.782-.166s2.489-2.461,7.993-3.761l-.332-.332a11.917,11.917,0,0,0-1.714.138,11.658,11.658,0,0,0-8.934,7.329A38.051,38.051,0,0,0,6.02,29.462a5.339,5.339,0,0,0,2.268,4.813,12.611,12.611,0,0,0,6.942,2.074s1-1.3,1.991-2.461a9.588,9.588,0,0,1-5.282-3.4l.7.359c.42.214.851.409,1.29.58Zm4.341-2.4a3.28,3.28,0,0,1,0-6.555,3.28,3.28,0,0,1,0,6.555Zm11.285,0a3.28,3.28,0,1,1,3.153-3.153A3.279,3.279,0,0,1,29.557,29.02Z" fill="#fff" opacity="0.9"/>
    </g>
  </g>
</svg>
