<svg xmlns="http://www.w3.org/2000/svg" width="48" height="48" viewBox="0 0 48 48">
  <g id="github_icon_white" transform="translate(24 24)">
    <g id="Group_369" data-name="Group 369" transform="translate(-24 -24)">
      <rect id="Rectangle_447" data-name="Rectangle 447" width="48" height="48" fill="#fff" opacity="0"/>
      <path id="Icon" d="M17.67,42c1.272,0,1.632-.5,1.632-1.134s0-2.018-.028-3.981c-6.608,1.41-8.018-3.152-8.018-3.152A6.343,6.343,0,0,0,8.6,30.3c-2.156-1.438.166-1.41.166-1.41a5.033,5.033,0,0,1,3.65,2.406c2.129,3.594,5.557,2.543,6.912,1.935a4.943,4.943,0,0,1,1.521-3.152c-5.281-.581-10.839-2.6-10.839-11.558a8.981,8.981,0,0,1,2.461-6.276,8.146,8.146,0,0,1,.194-6.194s1.99-.636,6.553,2.406a22.809,22.809,0,0,1,11.889,0c4.507-3.014,6.525-2.406,6.525-2.406a8.59,8.59,0,0,1,.249,6.194,8.951,8.951,0,0,1,2.433,6.276c0,8.987-5.557,10.95-10.866,11.53a5.52,5.52,0,0,1,1.6,4.314c0,3.152-.028,5.64-.028,6.387,0,.608.277,1.106,1.631,1.106Z" fill="#fff" opacity="0.9"/>
    </g>
  </g>
</svg>
