<svg xmlns="http://www.w3.org/2000/svg" xmlns:xlink="http://www.w3.org/1999/xlink" width="88" height="88" viewBox="0 0 88 88">
  <defs>
    <linearGradient id="linear-gradient" y1="0.5" x2="1" y2="0.5" gradientUnits="objectBoundingBox">
      <stop offset="0" stop-color="#58d3cc"/>
      <stop offset="1" stop-color="#4ab6ff"/>
    </linearGradient>
  </defs>
  <g id="Ram_icon" transform="translate(44 44)">
    <g id="Group_344" data-name="Group 344" transform="translate(-44 -44)">
      <rect id="Rectangle_432" data-name="Rectangle 432" width="88" height="88" fill="#fff" opacity="0"/>
      <g id="Group_343" data-name="Group 343" transform="translate(10.84 30.141)">
        <path id="Path_1368" data-name="Path 1368" d="M75.189,48.563l-2.055.77c0,.43.016,1.083,0,1.733-.026.885-.394,1.255-1.266,1.305-.258.015-.518,0-.779,0H37.5c-1.855,0-2.013-.159-2.014-2.033,0-.4,0-.8,0-1.234H33.261c0,.667.02,1.294,0,1.92-.035.93-.416,1.338-1.332,1.34q-9.739.018-19.477,0c-.968,0-1.325-.4-1.344-1.4-.012-.6,0-1.2,0-1.761-.123-.068-.169-.116-.219-.12-1.926-.132-2.009-.22-2.009-2.169q0-5.845,0-11.689c0-1.264.114-1.327,1.3-1.773a1.612,1.612,0,0,0,.864-1.012c.116-.548-.3-.926-.881-1.089-1.167-.325-1.28-.5-1.283-1.682s-.009-2.366,0-3.549c.01-1.072.385-1.437,1.47-1.462.144,0,.288,0,.433,0q31.337,0,62.673.015a9.273,9.273,0,0,1,1.738.334V30.9a4.957,4.957,0,0,0-1.167.5c-.348.269-.81.692-.8,1.039s.48.754.832,1.029a5.56,5.56,0,0,0,1.138.548Zm-2.057-21.61H11.1a10.657,10.657,0,0,1-.007,1.176,1.554,1.554,0,0,0,.83,1.668,3.208,3.208,0,0,1-.167,5.39,1.231,1.231,0,0,0-.666,1.234c.022,3.175.01,6.351.012,9.525,0,.277.029.554.044.824H73.132c0-3.636.011-7.212-.026-10.787,0-.246-.328-.556-.579-.719a3.253,3.253,0,0,1-.285-5.413,1.792,1.792,0,0,0,.895-1.9C73.106,27.645,73.132,27.329,73.132,26.953Zm-2.25,22.16H37.741v.967H70.882ZM31,49.106H13.367v.979H31Z" transform="translate(-8.869 -24.661)" fill="url(#linear-gradient)"/>
        <path id="Path_1369" data-name="Path 1369" d="M32.442,34.9c0-1.672-.007-3.344,0-5.016.007-1.227.336-1.574,1.52-1.582q2.939-.02,5.879,0c1.1.009,1.467.368,1.47,1.456q.02,5.188,0,10.378c0,1.084-.378,1.445-1.473,1.453q-2.941.02-5.88,0c-1.154-.006-1.506-.354-1.514-1.5C32.432,38.357,32.442,36.627,32.442,34.9Zm2.275-4.349v8.778h4.329V30.548Z" transform="translate(-3.632 -23.855)" fill="url(#linear-gradient)"/>
        <path id="Path_1370" data-name="Path 1370" d="M23.191,35.028c0,1.672.011,3.344,0,5.016-.011,1.2-.358,1.536-1.563,1.542q-2.9.015-5.793,0c-1.139-.006-1.523-.373-1.528-1.5q-.02-5.146,0-10.292c0-1.124.387-1.49,1.527-1.5q2.9-.02,5.793,0c1.205.006,1.555.347,1.564,1.541C23.2,31.568,23.191,33.3,23.191,35.028Zm-2.257,4.313V30.589h-4.35v8.752Z" transform="translate(-7.664 -23.854)" fill="url(#linear-gradient)"/>
        <path id="Path_1371" data-name="Path 1371" d="M23.374,34.852c0-1.644-.007-3.287,0-4.93.009-1.3.335-1.621,1.656-1.626,1.9-.007,3.8-.011,5.707,0,1.138.007,1.519.373,1.524,1.5q.018,5.146,0,10.292c0,1.123-.39,1.489-1.529,1.5q-2.941.017-5.88,0c-1.09-.009-1.461-.369-1.473-1.458C23.36,38.37,23.375,36.611,23.374,34.852Zm6.64-4.281H25.665v8.735h4.349Z" transform="translate(-5.647 -23.854)" fill="url(#linear-gradient)"/>
        <path id="Path_1372" data-name="Path 1372" d="M50.391,34.952c0,1.672.007,3.344,0,5.016-.009,1.28-.332,1.613-1.575,1.619q-2.9.015-5.793,0c-1.134-.007-1.513-.374-1.518-1.507q-.018-5.146,0-10.292c0-1.093.383-1.478,1.448-1.486q2.983-.026,5.967,0c1.088.009,1.454.37,1.467,1.463C50.4,31.492,50.39,33.221,50.391,34.952Zm-2.259,4.39V30.59h-4.35v8.752Z" transform="translate(-1.62 -23.855)" fill="url(#linear-gradient)"/>
        <path id="Path_1373" data-name="Path 1373" d="M50.574,34.953c0-1.7-.011-3.4,0-5.1.01-1.2.354-1.545,1.553-1.552q2.9-.016,5.793,0c1.173.009,1.536.375,1.539,1.573q.015,5.06,0,10.12c0,1.239-.363,1.591-1.6,1.6q-2.853.013-5.707,0c-1.244-.006-1.569-.34-1.577-1.617C50.565,38.3,50.574,36.625,50.574,34.953Zm2.287-4.385v8.745h4.328V30.567Z" transform="translate(0.397 -23.855)" fill="url(#linear-gradient)"/>
      </g>
    </g>
  </g>
</svg>
