<svg xmlns="http://www.w3.org/2000/svg" xmlns:xlink="http://www.w3.org/1999/xlink" width="96" height="96" viewBox="0 0 96 96">
  <defs>
    <linearGradient id="linear-gradient" y1="0.5" x2="1" y2="0.5" gradientUnits="objectBoundingBox">
      <stop offset="0" stop-color="#3eb3cc"/>
      <stop offset="1" stop-color="#2e99e6"/>
    </linearGradient>
  </defs>
  <g id="SDK_based_icon" transform="translate(48 48)">
    <g id="Group_13" data-name="Group 13" transform="translate(-48 -48)">
      <rect id="Rectangle_8" data-name="Rectangle 8" width="96" height="96" fill="#fff" opacity="0"/>
      <path id="Path_11" data-name="Path 11" d="M48.88,50.578,48,79.282a2.057,2.057,0,0,1-.8-.176L24.024,69.454a2.09,2.09,0,0,1-1.308-1.935V49.6Z" fill="#d09a62"/>
      <path id="Path_12" data-name="Path 12" d="M73.284,49.6V67.519a2.089,2.089,0,0,1-1.309,1.935L48.8,79.106a2.052,2.052,0,0,1-.8.176V49.6Z" fill="#b37f54"/>
      <path id="Path_13" data-name="Path 13" d="M22.716,40.9l-5.982,6.239a2.132,2.132,0,0,0,.674,3.454l20.93,8.833a2.071,2.071,0,0,0,2.283-.459L48,51.9l7.378,7.074a2.072,2.072,0,0,0,2.284.459L78.591,50.6a2.131,2.131,0,0,0,.675-3.454L73.284,40.9l5.981-6.238a2.132,2.132,0,0,0-.675-3.454L57.661,22.38a2.072,2.072,0,0,0-2.283.458L48,29.912l-7.379-7.074a2.072,2.072,0,0,0-2.283-.458l-20.93,8.833a2.131,2.131,0,0,0-.674,3.454Z" fill="#f2c483"/>
      <path id="Path_14" data-name="Path 14" d="M48,29.907V51.9L22.71,40.907Z" fill="#d09a62"/>
      <path id="Path_15" data-name="Path 15" d="M73.28,40.907,48,51.9V29.907Z" fill="#d09a62"/>
      <rect id="Rectangle_9" data-name="Rectangle 9" width="43.972" height="21.986" rx="3.298" transform="translate(26.014 15.522)" fill="url(#linear-gradient)"/>
      <g id="Group_12" data-name="Group 12">
        <path id="Path_16" data-name="Path 16" d="M40.035,28.978a3.554,3.554,0,0,1-.51,1.879,3.465,3.465,0,0,1-1.53,1.326,5.98,5.98,0,0,1-2.567.484,8.951,8.951,0,0,1-1.921-.187,7.771,7.771,0,0,1-1.649-.561V29.285A14.174,14.174,0,0,0,33.736,30a6.388,6.388,0,0,0,1.845.289,1.865,1.865,0,0,0,1.207-.314.99.99,0,0,0,.374-.791,1.082,1.082,0,0,0-.595-.943,17.6,17.6,0,0,0-1.683-.875A9.672,9.672,0,0,1,33.5,26.59a3.678,3.678,0,0,1-1.1-1.139,3.3,3.3,0,0,1-.425-1.76,3.075,3.075,0,0,1,1.181-2.6,5.046,5.046,0,0,1,3.137-.9,7.4,7.4,0,0,1,1.955.247,15.216,15.216,0,0,1,1.768.6L39.1,23.3a11.313,11.313,0,0,0-1.522-.553,5.122,5.122,0,0,0-1.368-.195,1.571,1.571,0,0,0-1.037.289.916.916,0,0,0-.34.731.9.9,0,0,0,.238.62,2.763,2.763,0,0,0,.748.535q.51.273,1.343.663a8.609,8.609,0,0,1,1.547.884,3.063,3.063,0,0,1,1.326,2.7Z" fill="#fff"/>
        <path id="Path_17" data-name="Path 17" d="M52.258,26.242a7,7,0,0,1-.782,3.476A4.973,4.973,0,0,1,49.232,31.8a8.045,8.045,0,0,1-3.485.7H42.092V20.359h4a6.449,6.449,0,0,1,4.53,1.505A5.642,5.642,0,0,1,52.258,26.242Zm-2.992.1a4.052,4.052,0,0,0-.782-2.738,2.926,2.926,0,0,0-2.312-.883h-1.19v7.4h.935a3.174,3.174,0,0,0,2.533-.944A4.229,4.229,0,0,0,49.266,26.344Z" fill="#fff"/>
        <path id="Path_18" data-name="Path 18" d="M64.668,32.5h-3.3l-2.8-4.9-1.038.681V32.5H54.621V20.359h2.906v5.424q.22-.375.485-.748c.176-.249.348-.494.518-.731l2.958-3.945h3.18l-4.046,5.406Z" fill="#fff"/>
      </g>
    </g>
  </g>
</svg>
