<svg xmlns="http://www.w3.org/2000/svg" width="48" height="48" viewBox="0 0 48 48">
  <g id="slack_icon_white" transform="translate(24 24)">
    <g id="Group_371" data-name="Group 371" transform="translate(-24 -24)">
      <rect id="Rectangle_448" data-name="Rectangle 448" width="48" height="48" fill="#fff" opacity="0"/>
      <g id="Group_370" data-name="Group 370" opacity="0.9">
        <path id="Path_1487" data-name="Path 1487" d="M28.557,22.621a3.735,3.735,0,0,0,3.731-3.731V9.731a3.731,3.731,0,1,0-7.462,0V18.89A3.736,3.736,0,0,0,28.557,22.621Z" fill="#fff"/>
        <path id="Path_1488" data-name="Path 1488" d="M35.593,22.621h2.676a3.731,3.731,0,1,0-3.731-3.731v2.676a1.055,1.055,0,0,0,1.055,1.055Z" fill="#fff"/>
        <path id="Path_1489" data-name="Path 1489" d="M9.731,23.173H18.89a3.731,3.731,0,1,0,0-7.461H9.731a3.731,3.731,0,1,0,0,7.461Z" fill="#fff"/>
        <path id="Path_1490" data-name="Path 1490" d="M18.89,13.462h2.676a1.056,1.056,0,0,0,1.055-1.055V9.731a3.731,3.731,0,1,0-3.731,3.731Z" fill="#fff"/>
        <path id="Path_1491" data-name="Path 1491" d="M19.442,25.379a3.735,3.735,0,0,0-3.73,3.731v9.159a3.731,3.731,0,0,0,7.462,0V29.11A3.736,3.736,0,0,0,19.442,25.379Z" fill="#fff"/>
        <path id="Path_1492" data-name="Path 1492" d="M12.407,25.379H9.731a3.731,3.731,0,1,0,3.731,3.731V26.434A1.055,1.055,0,0,0,12.407,25.379Z" fill="#fff"/>
        <path id="Path_1493" data-name="Path 1493" d="M38.269,24.826H29.11a3.731,3.731,0,1,0,0,7.462h9.159a3.731,3.731,0,1,0,0-7.462Z" fill="#fff"/>
        <path id="Path_1494" data-name="Path 1494" d="M29.11,34.538H26.434a1.055,1.055,0,0,0-1.055,1.055v2.676a3.731,3.731,0,1,0,3.731-3.731Z" fill="#fff"/>
      </g>
    </g>
  </g>
</svg>
