<svg xmlns="http://www.w3.org/2000/svg" width="48" height="48" viewBox="0 0 48 48">
  <g id="twitter_icon_white" transform="translate(24 24)">
    <g id="Group_374" data-name="Group 374" transform="translate(-24 -24)">
      <rect id="Rectangle_449" data-name="Rectangle 449" width="48" height="48" fill="#fff" opacity="0"/>
      <g id="Group_373" data-name="Group 373" opacity="0.9">
        <g id="Group_372" data-name="Group 372">
          <path id="Path_1495" data-name="Path 1495" d="M42,12.838A15.394,15.394,0,0,1,37.747,14a7.334,7.334,0,0,0,3.247-4.079,14.747,14.747,0,0,1-4.68,1.787,7.379,7.379,0,0,0-12.766,5.046,7.567,7.567,0,0,0,.171,1.683A20.89,20.89,0,0,1,8.507,10.721a7.38,7.38,0,0,0,2.268,9.864,7.3,7.3,0,0,1-3.335-.909v.081a7.413,7.413,0,0,0,5.913,7.251,7.375,7.375,0,0,1-1.935.243,6.528,6.528,0,0,1-1.4-.126,7.449,7.449,0,0,0,6.9,5.141,14.825,14.825,0,0,1-9.151,3.148A13.873,13.873,0,0,1,6,35.313a20.78,20.78,0,0,0,11.322,3.312c13.581,0,21.006-11.25,21.006-21,0-.327-.011-.642-.027-.954A14.736,14.736,0,0,0,42,12.838Z" fill="#fff"/>
        </g>
      </g>
    </g>
  </g>
</svg>
